<?xml version="1.0" standalone="no"?>
<!DOCTYPE svg PUBLIC "-//W3C//DTD SVG 20010904//EN"
 "http://www.w3.org/TR/2001/REC-SVG-20010904/DTD/svg10.dtd">
<svg version="1.0" xmlns="http://www.w3.org/2000/svg"
 width="424.000000pt" height="424.000000pt" viewBox="0 0 424.000000 424.000000"
 preserveAspectRatio="xMidYMid meet">
<metadata>
Created by potrace 1.14, written by Peter Selinger 2001-2017
</metadata>
<g transform="translate(0.000000,424.000000) scale(0.100000,-0.100000)"
fill="#000000" stroke="none">
<path d="M93 3182 l-33 -3 17 -32 c9 -18 16 -35 15 -39 -1 -5 3 -8 8 -8 6 0
10 -9 10 -20 0 -11 4 -20 9 -20 5 0 21 -24 36 -52 32 -65 58 -111 66 -118 3
-3 16 -25 30 -50 13 -25 34 -59 46 -76 13 -17 20 -34 16 -37 -3 -4 -1 -7 5 -7
7 0 12 -9 12 -19 0 -10 7 -22 16 -25 9 -4 14 -9 11 -12 -3 -4 10 -29 29 -56
19 -28 37 -61 40 -74 7 -28 -12 -26 268 -25 104 1 191 3 193 5 5 5 -16 44 -34
63 -6 7 -15 23 -19 36 -3 12 -17 36 -30 53 -13 17 -20 34 -17 38 4 3 1 6 -5 6
-7 0 -12 5 -12 10 0 6 -10 24 -22 40 -12 16 -19 33 -15 36 4 4 122 7 263 7
l256 0 23 -29 c13 -16 21 -32 18 -36 -2 -5 0 -8 5 -8 8 0 23 -35 21 -49 -1 -2
6 -8 15 -13 9 -5 16 -16 16 -23 0 -8 5 -15 11 -15 6 0 8 -7 5 -15 -3 -9 1 -18
9 -21 8 -3 26 -29 40 -57 15 -29 40 -74 56 -102 16 -27 32 -58 35 -67 4 -10
11 -18 16 -18 5 0 7 -4 4 -9 -3 -5 -36 -8 -73 -7 -38 1 -79 -2 -93 -7 -14 -5
-90 -9 -170 -8 -80 0 -163 1 -185 0 -22 0 -76 0 -120 0 -85 1 -119 1 -228 -2
-38 -1 -71 2 -74 7 -3 4 -9 2 -13 -5 -9 -14 17 -77 42 -100 10 -9 15 -19 11
-23 -3 -3 -1 -6 5 -6 7 0 11 -3 10 -7 -1 -5 4 -19 10 -33 12 -26 18 -35 65
-108 15 -24 27 -47 27 -53 0 -5 5 -9 11 -9 5 0 8 -3 6 -7 -2 -5 4 -21 14 -38
10 -16 24 -41 31 -55 7 -14 21 -34 30 -44 17 -19 22 -31 19 -48 0 -5 4 -8 9
-8 6 0 10 -5 10 -11 0 -6 12 -26 26 -45 15 -19 24 -34 20 -34 -7 0 44 -82 57
-91 5 -3 9 -10 9 -15 1 -19 18 -54 27 -54 5 0 12 -14 16 -30 4 -17 11 -30 16
-30 10 0 34 -49 31 -62 -1 -5 2 -8 8 -8 5 0 10 -7 10 -15 0 -8 10 -25 23 -37
13 -13 22 -28 20 -34 -2 -5 5 -19 16 -31 11 -11 17 -24 14 -27 -4 -3 -1 -6 6
-6 7 0 9 -5 6 -10 -3 -6 0 -13 9 -16 8 -3 13 -11 10 -19 -3 -7 2 -15 10 -18 9
-4 16 -13 16 -22 0 -8 5 -15 10 -15 6 0 10 -3 9 -8 -2 -14 13 -52 22 -52 4 0
13 -16 20 -35 7 -19 17 -35 21 -35 4 0 8 -5 8 -11 0 -6 9 -22 20 -36 11 -14
20 -32 20 -40 0 -8 6 -21 13 -28 28 -32 51 -69 89 -145 12 -25 25 -47 29 -50
3 -3 18 -29 33 -58 15 -29 34 -61 44 -73 9 -11 18 -23 18 -27 5 -24 17 -52 24
-52 4 0 15 -18 24 -40 9 -22 20 -40 26 -40 5 0 10 -6 10 -13 0 -7 5 -18 11
-24 15 -15 35 4 45 41 3 14 10 26 15 26 10 0 34 49 31 63 -1 4 2 7 7 7 5 0 12
8 15 17 4 10 18 36 31 58 14 22 28 48 31 57 4 10 10 18 14 18 5 0 13 12 19 28
12 31 32 64 44 73 5 3 8 8 7 10 -3 7 23 59 30 59 7 0 13 15 20 48 1 4 12 21
25 38 13 17 21 34 18 38 -4 3 -1 6 5 6 7 0 12 7 12 15 0 7 6 18 13 22 6 4 22
28 35 53 12 25 31 59 41 75 10 17 16 33 14 38 -2 4 1 7 6 7 6 0 11 7 11 15 0
8 4 15 8 15 8 0 35 46 36 63 1 4 6 11 12 15 6 4 17 22 25 40 8 17 18 32 22 32
5 0 6 4 3 9 -3 5 1 14 9 21 8 7 15 19 15 26 0 8 5 14 10 14 6 0 9 3 8 8 -2 13
15 47 29 55 7 4 13 15 13 22 0 8 5 15 12 15 6 0 8 3 5 7 -4 3 -3 11 2 17 13
18 31 76 22 76 -6 0 -44 66 -45 81 -1 3 -8 12 -16 21 -13 12 -53 15 -233 16
-195 1 -238 -4 -207 -23 5 -3 7 -12 3 -20 -3 -8 0 -15 6 -15 6 0 11 -5 11 -11
0 -6 9 -24 21 -40 15 -22 18 -33 10 -43 -6 -7 -8 -16 -4 -19 3 -4 1 -7 -6 -7
-11 0 -36 -47 -33 -62 1 -5 -2 -8 -8 -8 -5 0 -10 -7 -10 -15 0 -8 -4 -15 -8
-15 -9 0 -35 -46 -36 -63 -1 -5 -8 -14 -16 -20 -8 -7 -16 -19 -18 -27 -2 -8
-14 -32 -28 -52 -13 -21 -24 -42 -24 -48 0 -5 -5 -10 -10 -10 -6 0 -9 -3 -8
-7 3 -13 -24 -63 -34 -63 -4 0 -8 -7 -8 -16 0 -13 -3 -14 -15 -4 -8 7 -12 16
-9 21 3 5 -2 9 -11 9 -11 0 -15 5 -11 15 3 8 0 15 -6 15 -6 0 -9 3 -5 6 3 4
-4 21 -16 38 -34 48 -47 70 -53 89 -4 9 -10 17 -14 17 -5 0 -11 13 -15 29 -3
16 -13 32 -21 35 -8 3 -14 12 -14 21 0 8 -4 15 -10 15 -5 0 -7 7 -4 15 4 8 2
15 -4 15 -5 0 -13 11 -16 25 -4 14 -10 23 -15 21 -5 -3 -12 4 -16 17 -9 27 -9
26 -25 60 -7 15 -17 27 -22 27 -5 0 -6 5 -3 10 3 6 2 10 -3 10 -5 0 -12 8 -16
18 -7 21 -28 55 -40 63 -5 4 -5 12 -2 18 4 6 2 11 -3 11 -6 0 -11 5 -11 11 0
6 -6 17 -12 24 -30 33 -34 41 -30 53 2 6 -1 12 -8 12 -6 0 -8 5 -5 10 3 6 0
13 -9 16 -8 3 -17 11 -19 18 -4 11 88 13 477 13 266 0 488 3 495 7 8 5 2 20
-18 49 -16 23 -28 45 -27 49 0 3 -9 17 -21 30 -12 13 -22 25 -21 28 0 13 -29
67 -45 82 -10 9 -19 20 -19 25 -3 24 -11 43 -20 43 -5 0 -7 4 -4 9 3 4 -3 16
-14 26 -11 10 -18 21 -15 25 2 4 -4 16 -15 27 -10 12 -16 23 -14 26 3 3 -4 15
-15 26 -12 12 -21 28 -21 36 0 8 -4 15 -9 15 -5 0 -12 11 -15 25 -4 14 -11 25
-16 25 -6 0 -10 9 -10 20 0 11 -5 20 -11 20 -5 0 -8 4 -5 9 3 4 -3 16 -13 25
-11 10 -25 32 -32 49 -7 18 -23 46 -36 63 -13 17 -20 34 -16 37 3 4 1 7 -5 7
-7 0 -12 9 -12 20 0 11 -3 20 -8 20 -4 0 -18 20 -31 45 -13 25 -28 45 -32 45
-5 0 -8 3 -8 8 3 12 -23 72 -30 72 -4 0 -21 26 -36 58 -16 31 -33 59 -37 62
-4 3 -17 27 -28 53 -12 26 -25 47 -30 47 -5 0 -10 7 -12 17 -3 15 -58 16 -688
17 -377 1 -700 0 -717 -2z"/>
<path d="M1840 3182 c0 -13 37 -79 50 -89 8 -7 11 -13 7 -13 -5 0 1 -13 12
-29 11 -15 18 -31 14 -35 -3 -3 -2 -6 3 -6 5 0 18 -17 29 -37 11 -21 22 -40
25 -43 3 -3 16 -25 29 -50 14 -25 33 -57 44 -72 11 -14 17 -31 13 -36 -3 -5 1
-13 10 -16 9 -4 14 -9 11 -13 -4 -3 3 -14 14 -24 11 -9 21 -21 21 -26 3 -24
11 -43 19 -43 5 0 9 -7 9 -15 0 -9 7 -18 15 -21 8 -4 12 -11 9 -16 -4 -6 -3
-13 2 -17 12 -8 32 -40 47 -73 6 -16 15 -28 20 -28 4 0 6 -4 3 -8 -3 -5 4 -19
14 -30 21 -22 45 -71 42 -84 -1 -5 2 -8 8 -8 5 0 17 -17 26 -37 10 -21 29 -56
43 -78 14 -22 32 -49 39 -60 20 -31 46 -89 44 -97 -1 -5 3 -8 8 -8 6 0 20 -21
33 -47 12 -27 30 -56 40 -65 10 -9 18 -19 19 -22 0 -20 12 -46 20 -46 5 0 7
-4 4 -9 -3 -5 1 -14 9 -21 8 -7 15 -19 15 -26 0 -8 5 -14 11 -14 5 0 8 -4 5
-9 -3 -5 2 -15 11 -22 14 -13 48 -79 44 -87 -1 -2 7 -12 18 -21 11 -10 18 -21
14 -25 -3 -3 -1 -6 5 -6 7 0 12 -9 12 -20 0 -11 5 -20 10 -20 6 0 10 -7 10
-15 0 -7 8 -19 18 -24 9 -6 13 -11 8 -11 -5 0 -3 -7 4 -15 7 -8 9 -15 5 -15
-4 0 5 -14 19 -31 14 -17 26 -35 26 -41 0 -6 11 -26 25 -43 13 -18 21 -35 18
-39 -4 -3 -2 -6 3 -6 6 0 16 -16 24 -35 8 -19 17 -35 22 -35 4 0 8 -7 8 -15 0
-8 5 -15 12 -15 6 0 9 -3 5 -6 -3 -4 9 -31 28 -60 19 -30 35 -56 35 -59 0 -3
0 -7 0 -10 0 -3 9 3 20 12 11 10 20 25 20 34 0 9 6 22 14 28 8 7 17 23 20 37
4 14 11 22 16 19 6 -3 10 3 10 14 0 12 5 21 11 21 5 0 8 4 4 9 -3 5 3 16 13
23 11 7 20 16 22 20 1 4 4 17 7 28 3 11 10 20 15 20 5 0 7 4 4 9 -3 5 1 14 9
21 8 7 15 19 15 26 0 8 5 14 10 14 6 0 9 3 8 8 0 4 3 16 7 26 6 13 4 21 -3 24
-7 2 -10 7 -7 12 3 5 -2 15 -10 24 -9 8 -25 36 -36 61 -11 25 -24 45 -28 45
-9 0 -24 38 -22 53 1 4 -2 7 -7 7 -4 0 -19 21 -32 47 -14 26 -33 56 -42 67
-10 10 -15 23 -12 28 3 4 1 8 -3 8 -5 0 -14 12 -21 28 -7 15 -28 54 -47 87
-20 33 -41 71 -47 85 -7 14 -16 28 -21 31 -4 3 -20 28 -35 56 -15 28 -46 84
-68 124 -23 41 -41 77 -40 81 0 4 -9 15 -22 23 -12 9 -20 21 -17 26 4 5 1 9
-6 9 -7 0 -9 3 -6 7 4 3 0 15 -10 25 -9 10 -13 18 -9 18 4 0 -2 10 -13 22 -11
11 -18 25 -15 30 3 4 0 8 -5 8 -6 0 -11 7 -11 15 0 8 -5 15 -11 15 -5 0 -8 4
-4 9 3 5 1 12 -5 16 -6 4 -22 30 -37 58 -14 29 -29 54 -33 57 -6 5 -16 26 -19
45 -2 6 -9 14 -17 18 -8 4 -14 13 -14 18 0 6 -9 24 -21 40 -11 16 -17 29 -13
29 4 0 -1 10 -12 23 -11 12 -26 36 -34 52 -8 17 -25 45 -37 64 -13 18 -20 37
-17 42 3 5 0 9 -5 9 -6 0 -11 7 -11 15 0 8 -4 15 -8 15 -9 0 -30 40 -28 50 0
3 -10 17 -23 30 l-25 25 -213 0 c-117 0 -213 -2 -213 -3z"/>
<path d="M2640 3178 c0 -4 17 -38 37 -75 20 -38 41 -77 47 -88 6 -11 21 -35
34 -53 13 -17 20 -32 15 -32 -4 -1 3 -10 16 -20 13 -11 20 -20 16 -20 -4 0 0
-11 9 -25 9 -13 16 -31 16 -39 0 -7 7 -16 15 -20 8 -3 15 -12 15 -21 0 -8 5
-15 10 -15 6 0 9 -3 8 -7 -2 -8 21 -54 31 -63 6 -5 23 -35 65 -114 12 -22 29
-49 38 -59 10 -11 15 -24 12 -29 -3 -4 -1 -8 4 -8 6 0 15 -12 21 -27 12 -32
32 -65 44 -74 5 -3 8 -8 7 -10 -2 -7 13 -43 24 -56 30 -34 34 -41 28 -47 -3
-4 -1 -10 5 -14 12 -8 63 -94 85 -144 7 -16 16 -28 20 -28 4 0 8 -8 8 -18 0
-9 9 -23 20 -30 12 -7 18 -17 15 -22 -3 -5 -1 -11 5 -15 6 -4 8 -11 5 -16 -4
-5 -2 -9 2 -9 5 0 17 -16 27 -35 11 -19 23 -35 28 -35 5 0 6 -4 3 -10 -3 -5
-1 -15 4 -22 6 -7 20 -24 31 -38 16 -20 19 -22 20 -7 0 9 5 17 11 17 5 0 8 4
5 8 -3 5 2 18 12 28 9 10 27 39 40 64 33 66 56 104 65 111 5 3 8 9 8 13 -1 6
7 21 46 84 10 15 16 30 15 35 -1 4 3 7 8 7 6 0 10 5 10 11 0 6 10 25 22 42 13
18 23 34 24 37 5 21 30 70 36 70 4 0 15 17 25 38 9 20 21 40 26 43 5 3 8 9 8
13 -1 6 7 21 46 84 10 15 16 30 15 35 -1 4 2 7 7 7 7 0 13 14 21 48 1 4 8 11
16 15 8 4 14 15 14 22 0 8 5 15 11 15 5 0 8 4 5 9 -3 5 1 14 9 21 7 6 11 19 8
27 -4 9 -2 14 3 11 5 -3 15 0 22 8 7 8 10 14 7 14 -3 0 1 14 10 30 9 17 20 30
26 30 6 0 9 7 5 15 -3 8 -1 15 4 15 6 0 10 7 10 15 0 8 5 15 12 15 6 0 8 3 5
7 -4 3 3 17 15 31 13 13 21 24 20 25 -7 4 23 62 38 74 8 6 15 15 16 20 1 14
25 67 32 73 4 3 15 17 25 33 17 27 17 27 -5 28 -153 5 -1548 2 -1548 -3z"/>
</g>
</svg>
