<?xml version="1.0" standalone="no"?>
<!DOCTYPE svg PUBLIC "-//W3C//DTD SVG 20010904//EN"
 "http://www.w3.org/TR/2001/REC-SVG-20010904/DTD/svg10.dtd">
<svg version="1.0" xmlns="http://www.w3.org/2000/svg"
 width="3062.000000pt" height="941.000000pt" viewBox="0 0 3062.000000 941.000000"
 preserveAspectRatio="xMidYMid meet">

<g transform="translate(0.000000,941.000000) scale(0.100000,-0.100000)"
fill="#000000" stroke="none">
<path d="M10960 6709 c-582 -55 -1069 -280 -1471 -679 -293 -291 -476 -594
-583 -967 -142 -495 -113 -1118 75 -1599 205 -524 601 -959 1094 -1200 302
-147 597 -220 993 -244 717 -42 1357 162 1849 590 88 77 273 274 273 291 0 4
-77 66 -171 137 l-172 130 -101 -106 c-327 -340 -706 -538 -1166 -609 -156
-24 -478 -23 -644 1 -338 49 -629 165 -884 353 -379 279 -638 677 -727 1117
-65 323 -56 657 25 964 38 141 75 236 151 382 274 529 828 908 1455 995 168
24 522 16 681 -14 463 -88 872 -326 1160 -677 l50 -62 169 130 c93 71 170 133
172 137 2 5 -25 43 -58 85 -386 486 -967 785 -1640 846 -131 11 -404 11 -530
-1z"/>
<path d="M21487 6705 c-588 -71 -1127 -361 -1499 -804 -227 -271 -405 -622
-488 -963 -53 -217 -64 -320 -65 -588 0 -186 5 -273 18 -360 77 -495 274 -890
627 -1253 473 -488 1024 -719 1715 -719 676 0 1227 229 1691 704 359 367 555
756 641 1273 28 171 25 602 -5 780 -84 490 -279 876 -620 1227 -345 355 -737
572 -1211 668 -237 48 -574 63 -804 35z m-47 -606 c0 -6 5 -7 13 -2 22 14 158
11 164 -4 6 -15 93 -19 93 -4 0 11 91 2 108 -12 8 -6 12 -5 12 4 0 12 2 12 9
0 5 -8 17 -11 32 -6 20 5 21 4 9 -5 -13 -10 -12 -11 5 -7 24 5 48 -16 35 -29
-21 -21 37 -56 78 -48 18 4 32 1 37 -5 5 -8 -1 -10 -18 -6 -25 7 -48 -11 -31
-24 12 -8 38 -63 35 -74 -1 -5 2 -6 7 -3 5 3 20 -6 32 -19 15 -16 19 -25 10
-25 -7 0 -1 -11 14 -25 15 -14 34 -25 42 -25 14 0 18 -11 15 -37 -1 -7 2 -13
6 -13 37 -2 94 -107 58 -107 -18 0 -20 13 -4 23 8 4 4 13 -12 25 -29 22 -46
25 -29 4 7 -8 19 -15 26 -15 11 0 12 -4 2 -19 -6 -10 -17 -17 -25 -14 -7 3
-11 8 -9 12 3 4 -4 7 -15 7 -14 0 -19 -6 -16 -16 3 -10 -3 -16 -16 -17 -11 -1
-24 -8 -29 -15 -6 -9 -7 -6 -3 8 5 18 1 22 -27 27 -35 5 -58 -7 -58 -29 0 -21
-28 -17 -53 7 -12 12 -16 19 -9 15 17 -10 15 2 -3 21 -9 8 -13 18 -10 22 4 3
11 -2 16 -12 6 -9 14 -15 19 -12 5 3 7 -3 5 -15 -2 -11 1 -23 7 -26 6 -4 8 -2
4 4 -3 6 1 15 10 20 15 9 15 11 -5 22 -12 6 -31 20 -42 31 -21 21 -45 26 -32
7 12 -21 12 -39 0 -35 -7 2 -12 10 -12 18 -1 8 -7 13 -14 11 -7 -1 -10 2 -7 7
4 5 -2 14 -11 20 -10 6 -13 11 -7 11 7 0 15 7 18 16 5 13 2 15 -14 11 -11 -3
-20 -2 -20 3 0 4 -11 5 -24 3 -12 -3 -39 0 -60 5 -21 6 -34 7 -31 1 4 -5 2 -9
-4 -9 -5 0 -13 -9 -16 -20 -3 -11 -14 -20 -23 -21 -11 0 -12 -3 -4 -6 6 -2 12
-11 12 -19 0 -8 4 -14 9 -14 5 0 16 -3 25 -6 12 -4 16 0 16 15 0 12 -5 21 -11
21 -5 0 -7 5 -3 12 6 9 9 9 11 1 3 -7 10 -10 17 -7 8 3 16 -2 19 -10 4 -10 1
-16 -8 -16 -8 0 -15 -5 -15 -11 0 -6 8 -8 19 -4 11 3 22 2 25 -3 3 -6 -2 -9
-12 -8 -9 0 -16 -5 -14 -12 2 -10 -2 -10 -19 -1 -12 6 -37 9 -55 7 -27 -3 -33
-1 -29 10 3 8 0 12 -7 9 -7 -2 -12 -11 -12 -20 1 -9 -2 -15 -6 -12 -5 3 -15 2
-24 -1 -13 -5 -14 -9 -5 -21 10 -11 7 -17 -12 -31 -23 -16 -28 -18 -57 -21 -7
0 -10 -6 -7 -11 19 -31 -45 -52 -87 -29 -20 11 -19 12 11 27 21 10 28 18 20
22 -8 5 -5 10 10 15 11 3 25 4 30 1 5 -3 7 3 4 14 -3 11 -10 23 -15 26 -15 9
-70 -17 -64 -31 2 -7 -1 -12 -7 -12 -58 1 -87 -4 -87 -18 0 -8 -4 -15 -9 -15
-5 0 -11 -6 -14 -13 -4 -10 3 -12 24 -9 30 4 40 -12 14 -22 -8 -3 -14 -11 -13
-18 2 -8 -7 -13 -24 -12 -15 0 -24 -4 -22 -8 3 -4 -2 -11 -10 -14 -12 -5 -13
-10 -5 -26 7 -14 8 -23 1 -30 -7 -7 -6 -16 5 -26 14 -15 18 -14 37 8 12 14 32
27 46 28 14 2 31 9 38 14 8 7 12 7 12 -1 0 -8 12 -4 29 9 33 23 52 11 29 -18
-12 -15 -11 -16 4 -4 9 8 16 26 16 43 -1 25 -3 27 -17 17 -9 -6 8 12 38 40 30
29 58 52 62 52 17 0 9 -29 -8 -33 -14 -4 -13 -5 4 -6 21 -1 63 44 63 67 0 5 6
15 14 21 15 13 76 -4 76 -21 0 -5 14 -7 33 -3 24 5 28 4 17 -4 -12 -9 -10 -11
10 -11 19 0 22 -2 11 -9 -12 -8 -9 -11 11 -16 16 -4 25 -12 22 -20 -3 -7 4
-15 15 -18 12 -3 21 -13 21 -25 0 -12 9 -22 21 -25 12 -3 18 -10 14 -17 -4 -6
-1 -17 5 -25 14 -17 7 -19 -19 -6 -14 8 -17 6 -16 -9 1 -11 5 -23 10 -27 4 -5
5 -2 0 6 -6 10 -4 12 4 7 8 -6 9 -11 2 -20 -11 -13 10 -69 30 -81 15 -10 10
-28 -6 -21 -17 6 -21 -9 -5 -19 6 -3 10 -18 10 -33 0 -18 3 -23 8 -14 7 10 12
8 24 -5 19 -22 29 -61 17 -68 -4 -3 -4 -16 1 -29 5 -13 6 -27 3 -30 -4 -3 -7
-16 -8 -29 -2 -12 -8 -21 -14 -20 -6 2 -11 -2 -11 -7 0 -6 -8 -10 -19 -10 -17
0 -18 6 -13 67 3 46 2 64 -6 59 -7 -4 -13 14 -16 51 -14 138 -42 198 -92 198
-25 0 -29 -4 -30 -29 -1 -21 -13 -41 -41 -67 -23 -21 -39 -40 -37 -42 3 -2 -2
-10 -11 -17 -8 -7 -15 -19 -15 -26 0 -8 -4 -14 -10 -14 -5 0 -7 7 -4 15 4 8 1
15 -5 15 -6 0 -11 -8 -11 -17 -1 -16 -2 -16 -17 2 -13 16 -15 17 -10 3 4 -10
3 -18 -2 -18 -4 0 -8 -7 -8 -15 0 -18 -1 -18 31 -6 18 7 28 6 36 -4 9 -10 6
-15 -12 -21 -13 -4 -26 -7 -30 -6 -17 4 -7 -20 17 -42 l26 -24 39 19 c41 20
79 26 47 8 -13 -8 -15 -14 -7 -30 6 -10 7 -18 3 -17 -15 4 -58 -15 -71 -31
-10 -12 -15 -13 -18 -3 -7 16 -25 16 -21 0 1 -7 10 -21 20 -33 10 -11 16 -28
13 -37 -7 -30 11 -20 23 12 13 38 28 38 36 0 4 -17 11 -28 16 -24 5 3 9 -2 9
-11 0 -11 -5 -15 -16 -11 -8 3 -12 2 -9 -3 3 -5 -1 -11 -9 -13 -13 -3 -13 -6
0 -23 12 -17 16 -18 24 -5 5 8 6 18 3 23 -3 5 4 3 16 -4 14 -10 17 -15 8 -21
-8 -5 -4 -8 11 -8 15 0 22 -6 22 -20 0 -11 -6 -20 -14 -20 -8 0 -17 -6 -19
-12 -3 -8 -6 -6 -6 5 -1 26 -16 20 -19 -8 -1 -17 2 -23 12 -19 8 3 17 1 21 -5
5 -9 -12 -13 -42 -10 -4 0 -11 -9 -15 -21 -6 -17 -11 -20 -22 -11 -7 6 -16 8
-19 4 -4 -3 -7 -3 -7 0 0 4 14 13 30 22 32 17 40 35 15 35 -8 0 -15 -4 -15 -8
0 -4 -8 -8 -18 -9 -10 -1 -19 5 -19 13 0 8 6 13 14 10 7 -3 13 1 13 11 0 13 3
13 15 3 18 -15 20 0 2 24 -12 16 -14 16 -35 -4 -12 -11 -22 -25 -22 -31 0 -6
-4 -7 -10 -4 -5 3 -10 1 -10 -4 0 -6 6 -11 13 -12 6 -1 -5 -5 -27 -10 -26 -6
-43 -6 -52 2 -14 12 -9 33 6 24 5 -3 12 -1 15 5 5 8 11 7 21 -1 10 -8 14 -8
14 0 0 10 -40 32 -62 35 -17 2 -21 19 -5 27 9 6 17 17 17 26 0 9 5 13 15 9 50
-20 48 -20 36 3 -7 12 -17 19 -24 16 -7 -4 -4 0 6 9 13 10 17 21 12 36 -4 11
-2 26 3 33 7 8 6 18 -4 31 -8 11 -14 14 -14 8 0 -19 -28 -14 -33 6 -4 14 -6
14 -12 -5 -4 -13 -12 -20 -17 -17 -5 3 -1 15 8 26 17 17 19 18 30 3 10 -14 12
-14 17 -1 4 9 2 18 -4 21 -5 4 -7 11 -4 16 3 5 -1 6 -9 3 -19 -7 -50 -54 -51
-76 0 -22 -11 -32 -25 -23 -8 5 -8 11 1 21 7 8 7 14 1 14 -5 0 -12 -7 -16 -15
-3 -10 -19 -15 -46 -15 -33 0 -40 -3 -40 -20 0 -11 8 -28 18 -37 9 -10 17 -30
17 -45 -1 -30 21 -38 43 -16 10 10 15 10 22 -2 12 -19 12 -30 1 -30 -16 0 -8
-40 9 -41 10 0 9 -3 -5 -9 -11 -5 -14 -9 -7 -9 6 -1 12 -10 12 -22 0 -11 -4
-18 -9 -15 -5 4 -15 -7 -23 -24 -8 -18 -20 -30 -32 -30 -26 0 -11 -13 19 -17
15 -2 25 1 25 8 0 7 3 10 6 6 10 -10 31 16 27 33 -2 8 3 24 12 35 15 19 15 19
29 1 9 -11 19 -15 28 -10 19 12 39 14 32 3 -3 -5 2 -12 10 -15 9 -3 13 -11 9
-17 -4 -6 -11 -3 -20 8 -11 16 -15 17 -26 6 -9 -11 -9 -14 1 -18 6 -3 10 -9 7
-13 -3 -5 -12 -7 -19 -4 -8 3 -17 1 -21 -5 -3 -7 2 -11 15 -11 11 0 23 -7 26
-15 4 -8 10 -13 14 -10 5 3 12 1 15 -5 4 -6 15 -8 24 -5 18 5 22 -1 51 -70 11
-27 13 -28 19 -11 5 14 10 16 15 8 4 -7 11 -10 16 -7 12 8 0 45 -15 45 -18 0
-23 19 -15 57 5 19 3 36 -4 43 -8 8 -6 9 8 4 11 -4 17 -4 13 2 -3 5 14 9 40 9
25 -1 48 -7 53 -14 6 -11 12 -11 31 3 13 9 37 16 54 15 26 0 27 -2 10 -9 -11
-5 -32 -11 -47 -14 -16 -4 -28 -12 -28 -18 0 -6 -9 -21 -19 -32 l-20 -21 48 3
c36 3 48 0 48 -10 0 -16 -34 -22 -42 -8 -3 6 -15 6 -29 0 -28 -10 -46 4 -46
37 0 13 -4 23 -9 23 -6 0 -8 -9 -6 -21 3 -16 0 -19 -15 -14 -10 3 -21 1 -25
-5 -4 -6 6 -10 24 -10 20 0 31 -5 31 -14 0 -19 18 -25 63 -20 35 4 42 -1 38
-28 0 -4 8 -6 19 -5 10 1 17 4 14 8 -2 4 2 9 10 12 14 6 31 -18 18 -26 -4 -2
-2 -2 5 -1 7 2 19 -3 27 -11 12 -13 15 -12 22 3 4 9 9 22 10 27 5 30 30 75 41
75 7 0 13 -5 13 -10 0 -7 6 -7 19 0 28 14 38 12 16 -3 -13 -10 -15 -16 -6 -21
6 -4 9 -12 6 -17 -4 -5 -2 -9 4 -9 5 0 12 6 14 13 4 7 6 6 6 -4 1 -23 -39 -33
-40 -11 -1 10 -1 20 0 25 0 4 -6 7 -15 7 -11 0 -14 -5 -9 -17 11 -30 16 -123
6 -123 -5 0 -24 -12 -41 -26 -24 -20 -28 -29 -18 -35 9 -6 9 -9 1 -9 -7 0 -17
8 -23 18 -10 14 -10 13 -6 -8 5 -24 3 -25 -34 -22 -37 4 -40 2 -40 -22 0 -15
-7 -29 -15 -32 -12 -5 -13 -10 -4 -20 6 -8 15 -11 20 -8 5 3 9 -1 9 -8 0 -8
10 -15 22 -15 15 -2 18 1 10 6 -11 6 -11 10 0 19 9 7 18 7 31 -3 15 -10 15
-14 3 -18 -9 -4 -12 -14 -9 -26 3 -12 9 -18 14 -15 5 3 7 10 4 15 -4 5 1 12 9
15 9 3 13 10 10 15 -3 5 0 9 5 9 6 0 11 5 11 11 0 5 -5 7 -12 3 -8 -5 -9 -2
-5 10 4 10 7 22 7 27 0 5 10 9 23 8 41 -4 67 1 67 11 0 6 12 22 28 36 15 13
20 22 11 19 -9 -4 -16 0 -16 8 0 9 7 12 17 10 12 -3 19 4 24 24 4 15 15 36 23
46 10 10 12 17 5 17 -7 0 -12 -4 -12 -10 0 -5 -6 -10 -14 -10 -7 0 -22 -12
-31 -27 l-18 -27 -9 23 c-9 25 4 53 48 100 13 14 20 30 15 35 -12 16 -11 56 1
56 17 0 -13 31 -42 43 -30 13 -35 14 -57 17 -12 1 -13 3 -5 7 6 2 9 10 5 16
-4 7 1 6 10 -2 9 -7 17 -10 17 -7 0 4 7 0 16 -8 8 -9 28 -16 44 -16 16 0 30
-5 32 -12 3 -8 17 -2 41 16 20 16 34 32 31 37 -3 5 2 6 10 3 8 -3 12 -12 9
-20 -6 -16 15 -18 37 -4 13 8 13 10 -1 10 -14 0 -17 11 -15 69 0 38 5 73 10
78 5 4 7 -4 4 -19 -3 -15 -1 -25 3 -22 5 3 9 16 9 30 0 13 5 24 12 24 6 0 8 3
5 7 -4 3 -2 12 4 20 13 15 -7 47 -23 37 -6 -4 -6 -9 2 -14 9 -6 9 -12 0 -30
-15 -28 -30 -15 -35 31 -3 24 -2 30 5 19 8 -12 10 -10 11 10 1 14 1 33 0 44
-1 15 2 16 12 7 14 -11 27 -6 27 11 0 10 -30 6 -50 -7 -8 -5 -23 -8 -32 -7
-21 4 -24 -18 -6 -36 8 -8 9 -12 1 -12 -7 0 -4 -15 8 -40 10 -21 19 -49 19
-61 0 -18 -2 -19 -15 -9 -8 7 -15 24 -15 38 0 29 -14 21 -16 -9 -1 -10 -2 -23
-3 -28 0 -5 -16 -9 -35 -9 l-33 0 23 25 c17 18 21 30 14 38 -5 6 -7 15 -3 18
3 4 -1 7 -11 7 -9 0 -15 -4 -12 -8 2 -4 -4 -8 -14 -8 -10 0 -17 3 -14 7 2 4
-3 12 -11 19 -8 7 -15 16 -15 21 0 18 -65 68 -76 58 -7 -6 -9 4 -7 30 2 25 -2
43 -12 51 -16 13 -21 35 -6 26 5 -4 12 0 14 6 4 10 7 10 15 0 14 -21 93 -36
104 -20 6 8 7 4 2 -12 -3 -14 -13 -29 -20 -33 -20 -11 -17 -23 5 -23 11 0 19
3 19 6 -2 24 3 43 10 33 9 -15 32 -19 60 -9 23 8 29 21 12 31 -5 3 -10 15 -10
26 0 11 5 17 10 14 6 -4 8 -10 6 -14 -3 -4 1 -8 9 -8 8 0 16 6 19 14 3 7 17
18 32 23 26 10 26 11 9 30 -10 11 -15 26 -12 34 3 8 0 19 -7 25 -18 15 -18 67
1 83 15 12 15 11 5 -9 -16 -29 -15 -33 7 -33 22 0 37 16 20 22 -6 2 0 12 13
23 13 11 17 13 11 5 -21 -24 -14 -34 9 -14 l22 19 -22 -29 c-21 -27 -21 -46
-1 -46 5 0 9 9 9 19 0 27 30 35 46 14 12 -17 13 -17 14 4 0 12 5 25 12 29 6 4
8 3 4 -4 -3 -6 -2 -13 4 -17 5 -3 10 -12 10 -18 0 -7 -4 -6 -10 3 -8 11 -9 8
-6 -15 2 -16 5 -34 5 -38 1 -5 5 -6 10 -3 5 3 12 -2 15 -11 5 -13 9 -14 14 -5
6 8 13 6 25 -8 9 -11 12 -20 6 -20 -15 0 -73 33 -78 44 -2 4 -7 2 -12 -5 -7
-11 -13 -9 -30 11 -11 14 -18 20 -15 13 4 -8 0 -11 -13 -8 -11 2 -22 -3 -26
-12 -6 -18 11 -34 35 -32 30 2 40 -1 40 -14 0 -8 13 -13 35 -13 19 0 34 -4 32
-9 -1 -6 -5 -9 -9 -8 -11 4 -10 -3 2 -27 6 -11 15 -30 21 -42 l12 -23 -24 21
c-15 13 -31 19 -44 15 -33 -10 -26 -28 13 -35 47 -7 54 -41 10 -50 -20 -4 -26
-10 -22 -21 3 -8 14 -15 23 -15 14 0 14 -2 1 -10 -11 -7 -11 -10 -2 -10 7 0
10 -5 6 -11 -5 -8 -9 -7 -15 3 -6 10 -21 14 -44 12 -25 -2 -35 2 -35 12 0 8
-2 14 -4 14 -2 0 -12 3 -21 7 -14 5 -16 2 -10 -18 8 -26 24 -41 37 -33 4 3 8
-6 8 -20 0 -14 5 -26 10 -26 6 0 10 -5 10 -11 0 -8 -4 -9 -13 0 -8 6 -17 8
-20 4 -9 -9 -9 -23 1 -22 18 3 26 -2 14 -9 -15 -10 -5 -42 13 -42 21 0 75 56
75 79 0 31 29 42 79 29 29 -7 38 -13 29 -19 -8 -6 3 -9 30 -9 23 0 42 -4 42
-10 0 -5 0 -13 0 -17 0 -5 -4 -8 -9 -8 -21 0 -25 -18 -7 -31 14 -10 34 -12 71
-8 40 5 54 3 64 -10 15 -18 56 -22 66 -6 3 6 11 10 18 10 6 0 2 -7 -9 -15 -10
-8 -14 -15 -8 -15 7 0 14 -12 17 -27 4 -20 0 -31 -14 -41 -13 -9 -19 -25 -19
-55 0 -44 -19 -91 -21 -52 0 11 -3 14 -6 7 -4 -10 -8 -10 -19 -1 -11 9 -14 8
-14 -5 0 -10 -4 -15 -9 -12 -11 7 -44 -42 -36 -54 3 -6 1 -10 -4 -10 -6 0 -12
8 -12 18 -3 40 -5 45 -16 49 -7 3 -13 0 -13 -6 0 -6 -7 -11 -15 -11 -8 0 -29
-15 -48 -34 -30 -29 -35 -31 -44 -17 -10 14 -13 14 -39 -6 -16 -11 -28 -25
-27 -30 2 -12 -25 -34 -31 -24 -3 4 3 16 14 26 33 29 26 44 -14 31 -19 -6 -32
-14 -30 -18 5 -7 0 -9 -21 -8 -3 0 -15 -9 -27 -20 -12 -11 -28 -18 -36 -15 -7
3 -23 -2 -35 -10 -12 -8 -16 -15 -10 -15 7 0 15 5 18 10 3 6 11 10 17 10 6 0
5 -7 -3 -17 -13 -17 -12 -17 11 -2 14 8 34 19 44 23 19 6 19 6 3 -12 -9 -10
-17 -24 -17 -30 0 -7 -3 -12 -7 -12 -5 0 -13 -11 -19 -24 l-11 -25 38 26 c22
15 36 30 32 37 -4 6 1 5 10 -3 14 -11 20 -11 32 -1 25 21 17 -1 -10 -26 -14
-13 -25 -18 -25 -12 0 6 -3 8 -7 4 -5 -4 -8 -13 -8 -19 0 -6 -16 -14 -35 -17
-20 -4 -40 -9 -45 -12 -6 -4 -19 1 -30 9 -13 10 -14 14 -4 10 9 -3 20 3 27 14
10 16 9 19 -6 19 -24 0 -62 -41 -44 -47 6 -3 12 -17 11 -31 l-1 -27 -7 25 c-6
22 -8 23 -14 7 -4 -10 -11 -15 -17 -12 -5 3 -10 1 -10 -6 0 -6 -8 -9 -20 -6
-22 6 -28 -8 -7 -16 6 -3 0 -6 -15 -6 -16 -1 -28 3 -28 8 0 5 -12 7 -27 5 -16
-3 -35 -5 -43 -6 -8 -1 -22 -11 -32 -22 -9 -12 -17 -18 -18 -14 0 4 -15 -8
-33 -26 -18 -18 -42 -38 -53 -45 -17 -11 -17 -11 6 -5 14 3 22 3 18 -1 -4 -4
-2 -18 3 -32 6 -18 6 -30 -2 -40 -7 -8 -12 -29 -11 -48 1 -19 -3 -35 -9 -35
-6 0 -8 7 -5 16 3 8 2 12 -4 9 -6 -3 -10 4 -10 16 0 16 -5 20 -20 16 -13 -3
-24 1 -30 14 -6 10 -18 19 -27 19 -14 0 -14 -3 2 -20 10 -12 19 -28 20 -38 1
-9 9 -43 19 -74 13 -40 22 -55 32 -51 9 3 14 -2 14 -16 0 -12 -4 -21 -9 -21
-4 0 -6 -12 -3 -26 3 -18 1 -25 -7 -23 -7 3 -12 8 -11 12 2 13 -34 67 -45 67
-6 0 -16 -5 -23 -12 -9 -9 -12 -9 -12 0 0 6 -7 9 -17 5 -12 -5 -14 -3 -8 7 5
8 4 11 -3 7 -16 -11 -41 3 -35 19 5 12 -7 19 -29 15 -5 0 -8 4 -8 10 0 7 -10
9 -25 7 -27 -6 -32 1 -13 20 8 8 8 15 -2 26 -7 9 -16 14 -20 11 -5 -3 -11 -1
-14 4 -3 5 1 11 9 15 8 3 15 13 15 21 0 10 -5 13 -11 9 -9 -5 -10 1 -5 20 4
15 2 26 -4 26 -5 0 -10 7 -10 16 0 12 -6 15 -24 10 -15 -4 -28 -1 -32 6 -4 7
-4 10 1 6 4 -4 14 -3 22 3 16 14 18 43 2 33 -7 -4 -7 1 1 16 11 20 10 21 -12
9 -34 -19 -44 -19 -45 2 -1 11 3 19 8 19 6 0 7 -4 4 -10 -3 -5 -1 -10 4 -10
18 0 12 18 -14 45 -14 14 -28 25 -29 25 -9 0 -44 -70 -42 -82 2 -7 9 -26 16
-43 7 -16 12 -34 11 -38 -1 -5 8 -11 19 -14 11 -3 20 -11 20 -18 0 -7 11 -24
24 -38 49 -53 79 -111 38 -74 -10 10 -24 17 -31 17 -7 0 -10 3 -7 8 2 4 -7 13
-21 19 l-25 12 7 -49 c4 -27 2 -56 -3 -67 -7 -13 -6 -28 3 -51 13 -30 13 -32
-5 -32 -10 0 -22 -5 -25 -10 -4 -6 -14 -10 -23 -9 -37 3 -63 -2 -57 -11 3 -5
15 -10 26 -10 11 0 22 -7 25 -15 4 -8 14 -15 24 -15 23 0 20 -34 -3 -38 -21
-4 -79 26 -72 38 11 18 -13 18 -77 0 -41 -11 -68 -15 -70 -8 -2 5 -12 0 -22
-11 -14 -16 -16 -21 -5 -21 8 0 14 -10 14 -25 0 -15 -6 -25 -14 -25 -8 0 -11
3 -8 7 12 12 -23 41 -44 36 -15 -4 -18 -2 -13 11 3 9 11 16 16 16 6 0 8 9 5
21 -5 17 -2 20 14 16 10 -3 19 0 19 5 0 6 8 17 17 24 10 7 15 16 11 20 -4 4
-14 2 -21 -4 -8 -7 -17 -9 -21 -5 -4 4 -4 -1 0 -11 5 -14 4 -17 -5 -11 -8 4
-11 20 -9 36 3 19 1 28 -6 26 -6 -2 -11 -13 -10 -25 0 -14 -4 -18 -15 -15 -11
3 -10 0 3 -11 17 -14 18 -16 3 -16 -9 0 -17 3 -18 8 0 4 -2 22 -4 41 -1 19 0
28 4 22 6 -9 11 -8 21 3 7 9 16 13 21 10 5 -3 6 2 3 10 -3 9 -10 13 -16 10 -5
-3 -23 0 -39 6 -28 12 -29 14 -14 36 14 22 12 28 -8 25 -4 -1 -7 7 -5 16 4 23
-44 30 -61 9 -11 -13 -9 -14 18 -6 19 5 31 5 31 -1 0 -5 -9 -9 -20 -9 -23 0
-26 -10 -7 -29 10 -11 7 -12 -13 -6 -14 3 -20 3 -15 -2 6 -4 16 -18 22 -30 12
-21 11 -22 -12 -13 -19 7 -23 6 -18 -5 5 -14 23 -19 52 -16 7 2 10 -2 7 -7 -8
-13 -56 -22 -56 -11 0 5 -8 9 -19 9 -16 0 -18 7 -16 64 2 35 5 68 7 73 3 4 -1
22 -8 38 -7 17 -13 24 -14 18 0 -25 -19 -12 -29 20 -8 22 -17 33 -31 33 -21 0
-28 -26 -7 -27 6 0 3 -4 -8 -9 -11 -5 -14 -9 -7 -9 11 -1 18 -31 7 -31 -12 0
-45 41 -45 56 0 8 -4 13 -9 10 -5 -3 -12 2 -16 12 -6 15 -8 14 -19 -7 -9 -15
-16 -20 -20 -12 -11 18 -46 14 -39 -5 3 -9 -8 -31 -27 -55 -17 -22 -29 -47
-26 -55 6 -15 -6 -17 -41 -8 -13 4 -23 13 -23 21 0 8 5 11 12 7 7 -4 8 -3 4 4
-5 8 1 12 16 12 19 0 20 -2 8 -11 -13 -9 -13 -10 0 -6 8 2 15 10 15 18 0 16
-22 19 -46 8 -15 -8 -59 -16 -88 -18 -9 -1 -11 -8 -8 -23 14 -50 -39 -57 -80
-10 -26 29 -27 34 -12 49 15 15 20 63 8 63 -6 0 -7 5 -4 10 4 6 10 8 15 5 4
-3 10 0 12 6 3 9 9 9 26 0 19 -10 22 -9 22 9 0 11 -5 20 -11 20 -5 0 -7 5 -4
10 5 9 -7 14 -27 11 -4 0 -16 15 -28 34 -12 19 -27 32 -32 29 -7 -4 -8 -2 -4
4 4 7 2 12 -5 12 -7 0 -9 10 -7 25 5 22 -2 30 -24 26 -4 0 -5 8 -3 19 2 11 1
19 -3 18 -4 -1 -18 4 -32 10 -14 6 -19 11 -11 11 8 1 12 3 9 6 -11 11 -37 -7
-32 -23 5 -15 4 -14 -6 1 -6 9 -9 21 -6 25 2 4 -4 8 -14 9 -23 2 -35 -13 -19
-23 8 -4 9 -3 5 4 -4 7 -2 12 4 12 7 0 9 -8 5 -20 -7 -21 8 -32 48 -34 26 -1
37 -36 12 -36 -10 0 -13 5 -9 12 5 8 0 9 -14 6 -12 -4 -20 -2 -16 3 3 5 1 9
-4 9 -4 0 -17 8 -28 18 -10 10 -27 21 -36 25 -20 7 -25 28 -5 25 6 -2 10 4 8
12 -2 8 -4 28 -5 44 0 16 -6 31 -12 33 -8 3 -11 -10 -9 -37 4 -49 -8 -52 -22
-5 -6 19 -7 32 -2 29 5 -3 8 10 7 29 -2 23 -7 33 -15 30 -7 -3 -13 0 -13 6 0
6 -8 8 -17 5 -11 -4 -14 -2 -8 3 17 14 17 35 0 53 -13 14 -14 23 -6 39 14 26
3 103 -13 94 -6 -3 -7 -2 -3 2 17 19 34 13 29 -12 -3 -18 0 -26 17 -30 24 -6
29 -23 6 -23 -8 0 -15 -5 -15 -11 0 -5 4 -8 8 -5 4 3 17 -12 27 -32 11 -20 20
-39 22 -41 6 -10 73 -10 73 -1 0 6 -4 8 -10 5 -6 -3 -7 1 -4 9 3 9 11 13 17 9
6 -4 7 -1 1 8 -12 20 -14 40 -3 33 14 -8 11 30 -3 45 -11 11 -10 13 0 7 7 -4
3 9 -8 29 -11 20 -15 33 -9 29 8 -5 10 1 7 18 -3 19 -1 25 11 24 10 -1 16 7
16 19 0 11 7 23 15 26 9 4 22 20 30 35 8 16 19 32 23 35 5 3 10 43 12 89 3 67
8 86 24 101 11 11 25 19 31 19 5 0 10 13 10 29 0 17 4 33 10 36 6 3 7 -1 4
-10 -5 -11 -2 -14 12 -8 13 5 16 3 12 -8 -3 -8 0 -23 8 -34 8 -10 14 -40 14
-67 0 -44 5 -53 31 -50 4 1 17 -21 28 -49 23 -51 67 -89 106 -89 17 0 17 -2 5
-10 -13 -9 -13 -10 1 -10 8 0 21 6 28 13 11 10 12 9 6 -2 -5 -9 -4 -12 3 -7
21 13 13 31 -24 51 -20 10 -44 35 -54 55 -10 19 -27 46 -39 59 -16 18 -18 27
-10 38 9 10 8 18 -4 31 -11 12 -14 27 -11 43 14 55 15 87 5 93 -7 5 -11 -7
-12 -36 0 -34 -2 -38 -9 -22 -12 30 -14 76 -5 98 6 14 2 24 -16 38 -43 33 -50
40 -45 45 3 3 13 2 23 -2 51 -22 88 -14 88 19 0 17 -5 23 -20 23 -11 0 -29 4
-39 8 -14 6 -17 5 -12 -3 4 -7 1 -12 -6 -13 -7 0 -32 -1 -55 -3 -40 -2 -42 -1
-37 21 9 32 -11 29 -38 -7 -21 -29 -46 -43 -32 -17 4 6 -12 -7 -35 -30 -23
-24 -48 -43 -55 -43 -8 0 -19 -7 -26 -15 -7 -9 -15 -13 -18 -11 -2 3 -23 -10
-45 -29 -22 -19 -44 -35 -49 -35 -4 0 -8 -7 -8 -15 0 -9 -11 -20 -24 -26 -13
-6 -32 -27 -42 -45 -20 -36 -44 -43 -63 -20 -9 11 -7 18 11 33 13 10 32 34 42
53 18 32 54 68 66 67 26 -2 83 63 134 152 5 9 41 39 80 66 39 28 71 55 71 60
1 17 39 94 48 95 4 0 7 -7 7 -16 0 -9 6 -14 13 -11 6 2 11 10 9 16 -1 7 2 10
7 7 5 -3 14 1 21 9 7 8 9 15 5 15 -4 0 -1 7 6 16 12 14 14 14 20 -3 4 -11 -2
-29 -14 -47 -18 -25 -18 -29 -4 -23 11 4 17 1 17 -8 0 -8 4 -15 9 -15 5 0 9
13 9 29 -1 16 8 48 19 70 11 23 16 41 10 41 -6 0 -7 3 -4 7 4 3 2 12 -5 20
-16 20 -2 28 17 9 21 -20 36 -21 29 -1 -4 8 -10 12 -15 9 -22 -13 -6 17 16 32
l25 17 -25 13 c-30 15 -51 10 -66 -17 -9 -18 -7 -19 15 -13 17 4 26 2 26 -5 0
-7 -6 -11 -12 -10 -7 1 -22 1 -33 0 -14 -1 -16 -4 -7 -9 9 -6 6 -12 -13 -20
-20 -9 -25 -9 -25 3 0 7 5 17 11 21 8 4 7 9 -2 15 -11 7 -10 9 3 9 14 0 16 5
9 22 -7 19 -2 25 37 45 49 25 62 25 37 -1 -15 -14 -15 -16 -1 -16 9 0 16 4 16
8 0 12 50 33 61 27 5 -4 9 -1 9 5 0 6 5 8 10 5 6 -3 10 2 10 13 0 10 6 19 14
19 8 0 12 -6 9 -14 -4 -9 0 -11 13 -6 13 5 16 3 12 -8 -5 -12 5 -15 46 -14 47
0 75 14 76 38 0 11 -38 9 -45 -3 -10 -16 -35 -11 -35 7 0 13 -3 14 -12 5 -7
-7 -18 -12 -26 -12 -9 0 -5 8 11 20 14 11 37 20 52 20 17 0 24 4 19 12 -4 6
-3 8 4 5 14 -9 43 3 36 14 -3 5 1 6 9 3 8 -3 39 2 68 10 l54 16 -25 -20 c-24
-20 -25 -21 -6 -35 25 -19 70 -19 86 0 7 8 16 13 20 10 5 -3 11 -1 15 5 3 5 1
10 -4 10 -19 0 -12 18 9 25 31 10 13 25 -23 20 -26 -4 -28 -3 -7 3 17 5 21 10
12 16 -7 4 -22 4 -34 1 -17 -6 -19 -5 -8 6 8 9 29 13 54 11 22 -1 61 1 86 7
64 13 150 13 150 0z m-360 -33 c0 -2 -7 -7 -16 -10 -8 -3 -12 -2 -9 4 6 10 25
14 25 6z m913 -48 c33 2 28 -14 -7 -20 -14 -3 -33 3 -47 14 l-24 19 25 -7 c14
-5 38 -7 53 -6z m100 -75 c-7 -2 -19 -2 -25 0 -7 3 -2 5 12 5 14 0 19 -2 13
-5z m-57 -10 c-4 -4 7 -12 25 -18 43 -15 54 -41 13 -31 -46 12 -78 56 -41 56
6 0 7 -3 3 -7z m178 -14 c20 0 50 -25 59 -51 4 -10 14 -18 24 -18 10 -1 29 -8
43 -16 17 -10 19 -13 5 -9 -60 21 -78 23 -101 15 -13 -5 -24 -14 -24 -19 0 -6
-8 -7 -17 -4 -11 4 -13 8 -5 11 10 3 10 7 1 18 -13 16 -44 19 -34 4 8 -12 -5
-13 -24 -1 -9 6 -10 11 -2 15 6 4 9 12 6 17 -4 5 -1 9 5 9 18 0 6 23 -14 26
-10 1 -21 5 -24 9 -4 4 13 4 38 0 25 -3 53 -6 64 -6z m-1624 -112 c0 -2 -13
-13 -30 -25 -16 -13 -30 -18 -30 -13 0 6 12 17 28 25 29 17 32 18 32 13z m-5
-58 c1 -8 7 -13 14 -11 8 1 6 -7 -6 -23 -10 -13 -24 -22 -31 -20 -7 3 -10 0
-7 -5 3 -6 1 -10 -5 -10 -6 0 -13 -8 -17 -17 -5 -16 -68 -80 -105 -108 -16
-13 -86 -45 -96 -45 -4 0 2 7 12 15 11 8 16 15 10 15 -17 0 -30 -15 -43 -47
-14 -34 -35 -47 -25 -15 4 9 -5 -1 -20 -23 -14 -22 -26 -35 -26 -28 0 7 -7 10
-16 6 -14 -5 -15 -3 -4 18 19 36 106 152 131 174 l22 20 -7 -25 c-6 -23 -6
-23 5 -5 12 19 12 19 20 0 6 -16 8 -17 8 -3 1 12 7 15 24 11 18 -5 20 -3 10 7
-10 10 -8 19 9 42 13 19 23 26 28 19 4 -7 12 6 19 29 10 33 16 40 31 35 10 -3
21 -2 24 4 9 14 41 6 41 -10z m-114 -16 c-5 -10 -21 -29 -36 -43 l-28 -25 13
25 c11 20 48 58 58 60 1 0 -2 -8 -7 -17z m1357 -5 c-5 -16 -48 -24 -48 -9 0 8
17 16 43 20 5 0 7 -5 5 -11z m546 -13 c-4 -8 -11 -15 -16 -15 -6 0 -5 6 2 15
7 8 14 15 16 15 2 0 1 -7 -2 -15z m-535 -62 c-19 -8 -28 -17 -23 -24 4 -7 3
-9 -3 -6 -6 4 -10 18 -10 31 0 28 22 38 49 22 15 -9 13 -12 -13 -23z m801 12
c-15 -18 -5 -49 11 -39 7 4 9 3 6 -4 -5 -7 -14 -7 -31 1 l-25 12 21 22 c24 26
37 31 18 8z m-764 -61 c-6 -7 -15 -10 -20 -7 -4 3 -2 9 5 14 10 6 7 9 -11 10
-14 0 -19 3 -12 6 6 2 9 10 5 16 -3 6 5 2 19 -8 18 -14 22 -22 14 -31z m151 0
c-3 -3 -12 -4 -19 -1 -8 3 -5 6 6 6 11 1 17 -2 13 -5z m233 -36 c11 -23 20
-46 20 -51 0 -15 -38 37 -50 67 -16 43 7 30 30 -16z m310 27 c-7 -8 -17 -15
-22 -15 -11 0 14 29 26 30 5 0 3 -7 -4 -15z m-655 -23 c-8 -2 -13 -8 -10 -13
4 -5 0 -9 -8 -9 -7 0 -14 7 -14 15 0 8 4 15 9 15 5 0 6 5 3 11 -4 6 3 5 14 -3
17 -10 18 -14 6 -16z m840 8 c3 -5 -3 -10 -14 -10 -12 0 -21 5 -21 10 0 6 6
10 14 10 8 0 18 -4 21 -10z m-2281 -35 c-31 -24 -84 -48 -91 -41 -3 3 0 6 8 6
8 1 32 14 54 29 40 29 65 34 29 6z m2066 21 c0 -2 -12 -11 -27 -20 l-28 -17
24 20 c23 21 31 25 31 17z m-16 -49 c-4 -12 -44 -42 -44 -32 0 4 42 45 47 45
1 0 0 -6 -3 -13z m161 3 c3 -5 1 -10 -4 -10 -6 0 -11 5 -11 10 0 6 2 10 4 10
3 0 8 -4 11 -10z m-715 -8 c0 -4 -9 -8 -20 -8 -11 0 -20 4 -20 8 0 4 9 8 20 8
11 0 20 -4 20 -8z m-590 -16 c0 -3 -4 -8 -10 -11 -5 -3 -10 -1 -10 4 0 6 5 11
10 11 6 0 10 -2 10 -4z m636 -11 c4 -8 9 -13 13 -10 4 2 8 -2 8 -10 0 -8 -9
-15 -19 -15 -11 0 -16 4 -13 10 3 5 0 7 -8 4 -17 -6 -31 11 -22 26 9 15 35 12
41 -5z m-566 -20 c-10 -12 -10 -15 1 -15 11 0 11 -2 -1 -10 -33 -21 -42 -2
-12 28 20 22 31 19 12 -3z m831 -8 c-16 -16 -26 0 -10 19 9 11 15 12 17 4 2
-6 -1 -17 -7 -23z m539 17 c0 -2 -7 -4 -15 -4 -8 0 -15 4 -15 10 0 5 7 7 15 4
8 -4 15 -8 15 -10z m-720 -4 c0 -5 7 -16 16 -24 14 -14 12 -16 -18 -13 -25 2
-33 7 -34 23 -1 13 6 20 17 21 11 1 19 -2 19 -7z m146 -2 c3 -4 -1 -5 -10 -4
-8 1 -18 5 -22 8 -3 4 1 5 10 4 8 -1 18 -5 22 -8z m-931 -18 c-3 -5 -11 -10
-16 -10 -6 0 -7 5 -4 10 3 6 11 10 16 10 6 0 7 -4 4 -10z m1085 -14 c0 -2 -8
-10 -17 -17 -16 -13 -17 -12 -4 4 13 16 21 21 21 13z m238 -39 c13 3 22 1 22
-6 0 -6 15 -15 33 -20 30 -9 30 -9 -19 -10 -46 -1 -54 2 -70 27 -12 18 -13 23
-3 15 8 -7 25 -10 37 -6z m-522 -17 c8 0 11 -6 8 -15 -8 -20 -34 0 -33 24 0
10 2 11 6 4 2 -7 11 -13 19 -13z m189 -91 c2 -10 8 -26 14 -37 9 -17 7 -18
-14 -14 -14 2 -25 11 -25 18 0 8 -5 14 -11 14 -6 0 -8 9 -4 20 4 13 1 22 -9
26 -17 7 -18 31 -1 50 9 11 43 -40 50 -77z m-1767 76 c-9 -9 -68 -13 -62 -4 3
5 19 9 36 9 17 0 29 -2 26 -5z m1480 -100 c-3 -3 -9 2 -12 12 -6 14 -5 15 5 6
7 -7 10 -15 7 -18z m202 5 c0 -5 -4 -10 -10 -10 -5 0 -10 5 -10 10 0 6 5 10
10 10 6 0 10 -4 10 -10z m26 -27 c0 -11 6 -17 17 -17 9 1 17 -3 17 -8 0 -6
-11 -7 -25 -4 -15 4 -25 2 -25 -4 0 -6 -5 -8 -11 -4 -8 5 -8 9 1 14 7 4 10 12
6 18 -3 6 0 13 6 15 7 3 14 6 14 6 1 1 1 -7 0 -16z m-492 -28 c-7 -16 -24 -21
-24 -6 0 8 7 13 27 20 1 1 0 -6 -3 -14z m346 5 c0 -5 -4 -10 -10 -10 -5 0 -10
5 -10 10 0 6 5 10 10 10 6 0 10 -4 10 -10z m-43 -25 c-12 -13 -37 -9 -37 5 0
11 22 18 37 13 9 -4 9 -8 0 -18z m-1582 5 c3 -5 1 -10 -4 -10 -6 0 -11 5 -11
10 0 6 2 10 4 10 3 0 8 -4 11 -10z m2126 -7 c7 7 5 2 -5 -10 -18 -21 -36 -21
-64 0 -22 17 9 28 34 12 17 -11 24 -11 35 -2z m197 -9 c-2 -25 -24 -21 -31 6
-3 13 0 18 14 17 12 -1 18 -8 17 -23z m-2258 -10 c0 -8 -4 -12 -10 -9 -5 3
-10 10 -10 16 0 5 5 9 10 9 6 0 10 -7 10 -16z m1174 1 c3 -9 -3 -19 -16 -26
-11 -6 -18 -7 -16 -2 3 4 8 16 11 26 8 21 13 22 21 2z m948 -7 c-7 -7 -12 -8
-12 -2 0 14 12 26 19 19 2 -3 -1 -11 -7 -17z m-812 7 c0 -3 -11 -10 -25 -15
-15 -6 -25 -17 -25 -29 0 -11 -5 -23 -11 -27 -19 -12 1 39 23 59 20 16 38 22
38 12z m1004 -4 c6 -10 -24 -25 -32 -16 -3 3 0 5 7 5 7 0 9 5 6 10 -3 6 -2 10
4 10 5 0 12 -4 15 -9z m-234 -11 c0 -5 -7 -10 -16 -10 -8 0 -12 5 -9 10 3 6
10 10 16 10 5 0 9 -4 9 -10z m-870 -10 c0 -5 -2 -10 -4 -10 -3 0 -8 5 -11 10
-3 6 -1 10 4 10 6 0 11 -4 11 -10z m-1330 -10 c-8 -5 -19 -10 -25 -10 -5 0 -3
5 5 10 8 5 20 10 25 10 6 0 3 -5 -5 -10z m254 -79 c-6 -6 -11 1 -18 29 l-7 25
15 -25 c8 -14 12 -27 10 -29z m996 39 c0 -5 -4 -10 -10 -10 -5 0 -10 5 -10 10
0 6 5 10 10 10 6 0 10 -4 10 -10z m-1215 -20 c-3 -5 -12 -10 -18 -10 -7 0 -6
4 3 10 19 12 23 12 15 0z m1335 0 c0 -5 -2 -10 -4 -10 -3 0 -8 5 -11 10 -3 6
-1 10 4 10 6 0 11 -4 11 -10z m-1380 -44 c0 -8 -4 -18 -10 -21 -5 -3 -10 3
-10 14 0 12 5 21 10 21 6 0 10 -6 10 -14z m2284 -55 c-8 -9 -22 12 -17 26 6
15 7 14 13 -3 4 -10 6 -21 4 -23z m-39 -1 c3 -5 1 -10 -4 -10 -6 0 -11 5 -11
10 0 6 2 10 4 10 3 0 8 -4 11 -10z m375 -10 c10 0 20 -7 24 -15 3 -8 2 -14 -2
-14 -30 5 -52 -3 -52 -18 0 -14 -2 -15 -9 -4 -5 7 -4 25 3 42 6 17 12 25 14
19 2 -5 12 -10 22 -10z m-1550 6 c0 -3 -4 -8 -10 -11 -5 -3 -10 -1 -10 4 0 6
5 11 10 11 6 0 10 -2 10 -4z m-1145 -33 c-5 -10 -8 -25 -7 -33 1 -12 0 -12 -5
-1 -4 10 -9 7 -17 -11 -11 -24 -11 -24 -29 -6 -17 18 -17 19 -1 16 10 -2 23 6
28 17 19 36 28 46 33 41 3 -3 2 -13 -2 -23z m1182 6 c-9 -6 -15 -14 -12 -19 3
-5 1 -11 -3 -14 -5 -3 -8 5 -7 17 3 28 2 27 23 27 16 -1 16 -1 -1 -11z m698
-18 c10 -17 -12 -21 -25 -6 -10 12 -10 15 3 15 9 0 18 -4 22 -9z m-124 -42 c8
-16 6 -18 -12 -16 -12 2 -26 13 -30 24 -6 17 -4 20 12 16 11 -3 24 -14 30 -24z
m1146 9 c-3 -8 -6 -5 -6 6 -1 11 2 17 5 13 3 -3 4 -12 1 -19z m-3142 -17 c-3
-12 -10 -21 -15 -21 -5 0 -4 11 2 25 13 29 23 26 13 -4z m74 7 c11 -15 10 -17
-8 -13 -13 2 -18 -1 -15 -10 3 -7 -4 -31 -15 -54 -27 -51 -27 -65 -1 -49 12 8
18 19 14 30 -3 10 -1 18 4 18 6 0 9 -21 7 -46 -2 -30 1 -44 9 -41 6 3 12 -6
12 -19 2 -28 -3 -30 -26 -9 -25 23 -46 9 -77 -51 -15 -30 -30 -54 -34 -54 -4
0 -7 16 -6 35 1 19 7 33 12 31 6 -2 16 7 21 19 9 19 9 22 -2 18 -8 -3 -14 -9
-14 -14 0 -5 -7 -9 -16 -9 -8 0 -12 5 -9 10 3 6 2 10 -3 10 -6 0 -13 7 -16 16
-3 8 -2 12 4 9 9 -6 14 14 11 43 -1 6 3 12 9 12 5 0 10 -12 10 -27 l0 -26 25
23 c14 13 24 29 22 34 -2 6 8 31 21 56 30 53 46 80 47 77 0 -1 7 -10 14 -19z
m1308 16 c-3 -3 -12 -4 -19 -1 -8 3 -5 6 6 6 11 1 17 -2 13 -5z m520 -16 c-2
-7 -10 -12 -16 -10 -6 1 -11 -2 -11 -6 0 -5 -7 -9 -16 -9 -12 0 -10 5 7 18 28
22 43 24 36 7z m1183 -14 c0 -14 -4 -23 -9 -20 -5 4 -8 -4 -7 -17 2 -12 0 -31
-3 -40 -6 -17 -8 -17 -33 2 -19 15 -24 27 -20 46 3 19 8 23 17 15 15 -13 25
-3 18 18 -4 10 -2 13 5 8 6 -3 13 -2 17 4 10 16 15 12 15 -16z m-3125 -23 c-3
-6 -11 -11 -17 -11 -6 0 -6 6 2 15 14 17 26 13 15 -4z m225 -2 c0 -11 -4 -18
-10 -14 -5 3 -7 12 -3 20 7 21 13 19 13 -6z m2924 -14 c-35 -26 -47 -15 -16
16 10 10 21 13 26 8 6 -6 2 -15 -10 -24z m-120 2 c3 3 6 0 6 -8 0 -8 11 -23
25 -33 29 -21 32 -38 10 -56 -15 -12 -21 -4 -16 23 1 5 -4 5 -10 1 -6 -3 -15
0 -20 7 -7 12 -11 11 -24 -2 -13 -12 -13 -21 -4 -48 6 -17 9 -35 5 -38 -3 -4
-6 1 -6 10 0 10 -4 17 -9 17 -13 0 -24 -37 -24 -80 0 -26 -6 -40 -24 -54 -36
-27 -40 -12 -11 44 23 44 25 55 15 85 -13 43 -35 45 -43 5 -9 -41 -20 -38 -27
7 -5 27 -1 45 14 70 21 33 54 44 61 21 3 -8 12 -2 22 15 14 21 22 25 36 17 9
-5 20 -6 24 -3z m-934 -47 c0 -5 -4 -10 -10 -10 -5 0 -10 5 -10 10 0 6 5 10
10 10 6 0 10 -4 10 -10z m-1865 -59 c-6 -5 -25 10 -25 20 0 5 6 4 14 -3 8 -7
12 -15 11 -17z m1955 15 c0 -11 -19 -15 -25 -6 -3 5 1 10 9 10 9 0 16 -2 16
-4z m848 -10 c-7 -8 -15 -12 -17 -11 -5 6 10 25 20 25 5 0 4 -6 -3 -14z
m-2854 -41 c-4 -8 -11 -12 -16 -9 -6 4 -5 10 3 15 19 12 19 11 13 -6z m1856
-25 c0 -5 -2 -10 -4 -10 -3 0 -8 5 -11 10 -3 6 -1 10 4 10 6 0 11 -4 11 -10z
m-375 -29 c-7 -23 -25 -19 -25 5 0 8 5 12 10 9 6 -3 10 -1 10 6 0 7 3 10 6 6
3 -3 3 -15 -1 -26z m1203 -41 c11 0 6 -7 -14 -21 -24 -15 -31 -25 -27 -40 4
-12 0 -25 -8 -30 -19 -12 -32 -11 -24 1 3 6 4 10 0 10 -3 0 -14 -15 -26 -32
-13 -22 -19 -27 -17 -13 3 21 -22 27 -54 13 -10 -5 -18 -3 -21 5 -4 9 -7 9
-18 0 -21 -20 -29 -15 -29 16 0 31 24 59 35 41 3 -5 -2 -10 -11 -10 -10 0 -15
-3 -11 -6 3 -3 27 1 53 10 38 13 50 13 57 4 5 -8 6 -2 3 17 -6 26 -5 28 5 10
17 -29 17 -29 34 -15 8 7 15 22 15 35 0 30 10 37 27 20 8 -8 22 -15 31 -15z
m-83 0 c3 -6 -1 -7 -9 -4 -18 7 -21 14 -7 14 6 0 13 -4 16 -10z m-2824 -33
c-10 -9 -11 -8 -5 6 3 10 9 15 12 12 3 -3 0 -11 -7 -18z m2636 -19 c-3 -7 -5
-2 -5 12 0 14 2 19 5 13 2 -7 2 -19 0 -25z m-2587 -6 c0 -15 -2 -15 -10 -2
-13 20 -13 33 0 25 6 -3 10 -14 10 -23z m200 8 c13 -8 12 -10 -3 -10 -11 0
-15 -4 -11 -12 4 -7 3 -8 -5 -4 -6 4 -9 11 -6 16 3 4 -1 11 -7 13 -9 4 -8 6 2
6 8 0 22 -4 30 -9z m2234 -26 c3 -8 2 -12 -4 -9 -6 3 -10 10 -10 16 0 14 7 11
14 -7z m-2484 -15 c0 -11 -4 -17 -10 -14 -5 3 -10 13 -10 21 0 8 5 14 10 14 6
0 10 -9 10 -21z m248 -98 c3 -8 -1 -12 -9 -9 -7 2 -15 10 -17 17 -3 8 1 12 9
9 7 -2 15 -10 17 -17z m-133 -21 l20 -25 -22 19 c-13 11 -23 24 -23 29 0 6 1
8 3 6 1 -2 11 -15 22 -29z m1960 10 c3 -5 -1 -10 -10 -10 -9 0 -13 5 -10 10 3
6 8 10 10 10 2 0 7 -4 10 -10z m-1764 -50 c-8 -5 -9 -14 -2 -33 8 -21 8 -27
-3 -27 -8 0 -16 12 -19 28 -6 29 9 56 25 46 7 -4 6 -9 -1 -14z m-211 -4 c0 -3
-4 -8 -10 -11 -5 -3 -10 -1 -10 4 0 6 5 11 10 11 6 0 10 -2 10 -4z m255 -6 c3
-5 2 -10 -4 -10 -5 0 -13 5 -16 10 -3 6 -2 10 4 10 5 0 13 -4 16 -10z m-463
-47 c-2 -50 22 -140 44 -164 9 -10 12 -19 7 -19 -6 0 -17 7 -24 16 -12 14 -14
14 -21 -3 -5 -14 -7 -11 -8 12 0 17 -3 71 -6 120 -3 50 -3 87 2 83 4 -5 7 -25
6 -45z m2746 2 c-3 -3 -9 2 -12 12 -6 14 -5 15 5 6 7 -7 10 -15 7 -18z m-2595
-30 c-3 -9 -8 -14 -10 -11 -3 3 -2 9 2 15 9 16 15 13 8 -4z m2594 -20 c-4 -8
-12 -15 -19 -14 -10 0 -10 2 0 6 6 2 12 12 12 21 0 8 3 13 6 9 4 -3 4 -13 1
-22z m-2320 -27 c-3 -7 -5 -2 -5 12 0 14 2 19 5 13 2 -7 2 -19 0 -25z m-60 -3
c-4 -8 -11 -15 -17 -15 -7 0 -7 6 0 21 13 23 26 19 17 -6z m2483 -24 c0 -11
-4 -9 -15 5 -8 10 -15 25 -15 33 0 11 4 9 15 -5 8 -10 15 -25 15 -33z m548 -7
c27 -8 29 -34 2 -34 -15 0 -19 -6 -17 -30 1 -16 8 -30 15 -30 6 0 12 -4 12
-10 0 -5 -9 -10 -20 -10 -11 0 -20 4 -20 9 0 12 -27 21 -44 15 -8 -3 -12 -12
-9 -20 3 -8 2 -22 -1 -31 -6 -15 -8 -15 -16 -3 -6 8 -10 28 -10 43 0 23 3 27
18 23 14 -5 18 -1 17 14 -1 11 -4 22 -8 26 -7 7 32 43 48 44 6 0 20 -3 33 -6z
m-3191 -39 c0 -8 -4 -12 -9 -9 -5 3 -6 10 -3 15 9 13 12 11 12 -6z m-50 -33
c-1 -10 -13 -28 -25 -40 l-22 -22 4 22 c7 40 18 58 32 58 8 0 13 -8 11 -18z
m193 8 c0 -5 -4 -10 -10 -10 -5 0 -10 5 -10 10 0 6 5 10 10 10 6 0 10 -4 10
-10z m297 -12 c-3 -8 -6 -5 -6 6 -1 11 2 17 5 13 3 -3 4 -12 1 -19z m2614 -10
c-6 -18 -51 -47 -51 -33 0 4 53 55 57 55 1 0 -1 -10 -6 -22z m-2109 -65 c-8
-34 -9 -36 -16 -15 -4 13 -12 19 -18 16 -8 -5 -9 -1 -3 12 4 10 10 29 13 42 4
22 5 22 18 3 10 -14 12 -30 6 -58z m639 55 c11 -21 11 -22 -4 -9 -10 7 -17 17
-17 22 0 15 9 10 21 -13z m279 0 c0 -12 -1 -19 -3 -17 -1 2 -9 12 -16 22 -12
14 -11 17 3 17 10 0 16 -8 16 -22z m195 2 c-3 -5 -11 -10 -16 -10 -6 0 -7 5
-4 10 3 6 11 10 16 10 6 0 7 -4 4 -10z m173 -9 c3 -8 -1 -12 -9 -9 -7 2 -15
10 -17 17 -3 8 1 12 9 9 7 -2 15 -10 17 -17z m-2165 -17 c-7 -19 -10 -18 -16
5 -3 13 -1 18 9 14 7 -2 10 -11 7 -19z m132 16 c3 -5 1 -10 -4 -10 -6 0 -11 5
-11 10 0 6 2 10 4 10 3 0 8 -4 11 -10z m705 1 c0 -10 -30 -24 -37 -17 -3 3 -2
9 2 15 8 13 35 15 35 2z m2018 -14 c4 -21 -24 -13 -32 9 -4 11 -1 14 11 12 10
-2 19 -11 21 -21z m337 13 c3 -5 1 -10 -4 -10 -6 0 -11 5 -11 10 0 6 2 10 4
10 3 0 8 -4 11 -10z m-3168 -22 c-3 -8 -6 -5 -6 6 -1 11 2 17 5 13 3 -3 4 -12
1 -19z m2873 12 c-20 -13 -33 -13 -25 0 3 6 14 10 23 10 15 0 15 -2 2 -10z
m265 -11 c-4 -5 -12 -9 -18 -8 -9 0 -8 2 1 6 6 2 9 10 6 15 -4 7 -2 8 5 4 6
-4 9 -12 6 -17z m-3388 -8 c-3 -12 3 -27 14 -37 11 -9 19 -12 19 -6 0 6 7 9
15 6 8 -4 15 -1 15 5 0 9 5 9 20 1 11 -6 20 -8 20 -5 0 4 5 3 10 0 7 -5 8 -11
1 -19 -6 -7 -6 -17 -1 -26 8 -12 10 -10 10 7 0 12 5 25 10 28 6 4 8 11 5 16
-4 5 4 9 16 9 17 0 20 -5 17 -25 -3 -14 -1 -28 3 -31 5 -3 9 2 9 11 0 11 5 15
14 12 8 -3 17 -1 20 6 3 7 4 3 3 -8 -2 -17 4 -20 41 -19 23 1 42 -3 42 -8 0
-6 -7 -8 -15 -4 -19 7 -19 1 1 -30 19 -29 13 -42 -9 -20 -11 12 -17 13 -20 3
-3 -8 -13 -2 -30 16 -24 25 -37 33 -37 22 0 -14 92 -96 104 -92 7 3 19 1 27
-4 12 -8 12 -10 -1 -8 -27 3 -40 -1 -40 -11 0 -5 5 -10 11 -10 6 0 24 -9 40
-21 17 -12 39 -19 50 -16 10 3 16 1 13 -4 -3 -6 -3 -18 1 -27 6 -15 8 -15 15
3 8 19 9 19 9 -1 1 -12 8 -25 17 -28 8 -3 13 -10 9 -15 -3 -6 4 -19 17 -30 12
-12 19 -23 17 -26 -8 -7 -69 18 -69 28 0 4 5 5 10 2 6 -3 10 -1 10 4 0 6 -10
12 -22 13 -37 2 -42 3 -55 11 -6 4 -13 1 -16 -5 -6 -17 -38 22 -32 39 6 16
-34 28 -48 14 -9 -9 -8 -17 1 -31 14 -23 16 -33 4 -26 -5 3 -19 -4 -31 -15
-18 -17 -22 -18 -27 -5 -3 9 -10 13 -16 10 -5 -3 -23 6 -39 22 l-29 28 0 -25
-1 -24 -15 28 c-28 52 -41 14 -17 -49 4 -11 3 -15 -4 -11 -6 4 -14 1 -16 -5
-3 -7 -5 4 -4 25 0 22 -4 42 -10 45 -6 4 -13 22 -16 41 -3 19 -9 37 -14 40 -4
3 -9 15 -11 25 -2 11 -9 29 -17 40 -7 12 -18 51 -25 89 -10 53 -10 70 0 82 18
21 33 19 27 -4z m1793 15 c0 -3 -4 -8 -10 -11 -5 -3 -10 -1 -10 4 0 6 5 11 10
11 6 0 10 -2 10 -4z m-1415 -16 c3 -5 1 -10 -4 -10 -6 0 -11 5 -11 10 0 6 2
10 4 10 3 0 8 -4 11 -10z m3095 -10 c-6 -11 -13 -20 -15 -20 -3 0 -5 9 -5 20
0 11 7 20 15 20 13 0 14 -4 5 -20z m-2698 -8 c3 -11 0 -19 -8 -19 -15 0 -19
19 -7 30 9 10 10 9 15 -11z m1272 -6 c-6 -16 -24 -23 -24 -8 0 10 22 33 27 28
2 -2 1 -11 -3 -20z m1314 18 c17 -5 21 -11 16 -27 -4 -12 -9 -43 -13 -71 -5
-39 -11 -50 -30 -57 -21 -8 -23 -7 -17 16 6 24 5 25 -15 15 -14 -8 -24 -9 -31
-2 -14 14 0 35 18 28 8 -3 14 -1 14 3 0 5 3 18 6 28 4 13 3 14 -3 5 -12 -15
-40 -6 -53 17 -7 15 -5 17 20 13 21 -3 32 1 42 17 14 23 14 23 46 15z m-2621
-23 c1 -15 -3 -18 -15 -14 -15 6 -15 4 -4 -9 11 -14 10 -16 -8 -11 l-21 6 22
23 c27 29 24 28 26 5z m173 12 c-8 -3 -23 -12 -32 -21 -10 -8 -18 -11 -18 -6
0 17 23 34 45 33 14 0 16 -2 5 -6z m1574 -32 c-1 -16 -5 -35 -9 -42 -6 -9 -1
-10 20 -5 22 6 26 4 22 -8 -7 -18 20 -36 56 -36 23 0 55 -28 77 -69 7 -14 7
-21 0 -21 -5 0 -2 -9 7 -19 9 -11 21 -18 25 -15 5 3 23 0 39 -6 23 -10 27 -16
18 -26 -6 -7 -18 -10 -26 -7 -11 4 -14 2 -9 -5 11 -19 -5 -14 -21 6 -10 13
-13 13 -11 2 2 -9 -3 -14 -13 -12 -12 2 -16 -5 -16 -25 0 -16 -3 -36 -8 -45
-14 -33 0 -43 51 -40 27 2 66 3 87 2 20 0 37 3 37 8 0 4 16 8 35 8 27 0 32 -3
23 -13 -6 -8 -18 -11 -26 -8 -9 3 -12 0 -9 -9 4 -10 -2 -17 -16 -22 -12 -4
-33 -14 -47 -24 -41 -27 -112 -49 -150 -46 -19 2 -43 4 -52 5 -26 2 -22 18 10
36 22 13 23 15 4 10 -12 -4 -22 -3 -21 2 4 22 -2 43 -11 38 -5 -3 -10 1 -10
10 0 9 5 13 10 10 6 -3 10 3 10 14 0 11 -5 23 -10 26 -6 4 -9 1 -8 -6 2 -6 -3
-14 -11 -17 -10 -3 -13 1 -9 14 10 39 -46 62 -144 58 -56 -2 -69 1 -84 17 -10
11 -14 19 -9 17 6 -2 10 2 10 7 0 6 -29 10 -67 10 -37 -1 -65 2 -62 6 2 4 -3
9 -11 13 -11 4 -15 -2 -15 -20 0 -19 4 -25 15 -21 8 4 17 2 20 -3 4 -6 0 -10
-7 -11 -10 0 -10 -2 -1 -6 10 -4 10 -9 -2 -26 -8 -11 -20 -22 -27 -23 -7 -1
-26 -5 -43 -9 l-30 -6 26 24 c22 20 24 25 11 33 -12 8 -13 13 -2 31 17 26 7
55 -16 46 -12 -4 -15 -3 -10 5 4 7 2 12 -5 12 -7 0 -4 7 7 16 18 14 18 15 -6
8 -21 -6 -23 -5 -13 8 7 8 10 18 6 21 -3 4 -2 7 4 7 6 0 16 -7 24 -16 7 -8 26
-22 42 -31 30 -15 30 -15 25 11 -4 18 -1 26 8 26 8 0 14 6 14 14 0 9 7 12 20
9 19 -5 19 -6 3 -18 -32 -23 -7 -26 41 -5 27 11 52 17 58 14 16 -10 48 27 48
55 0 30 25 71 43 71 7 -1 6 -5 -4 -13 -23 -18 -30 -44 -12 -51 19 -8 36 2 30
18 -3 8 5 11 24 10 23 -2 29 2 29 18 0 15 -5 19 -17 14 -15 -5 -15 -4 1 9 30
23 42 18 40 -14z m-2098 4 c-1 -8 -7 -20 -13 -26 -13 -13 -13 7 0 29 11 16 16
15 13 -3z m1832 -2 c-4 -22 -48 -31 -48 -10 0 19 10 27 32 27 13 0 18 -6 16
-17z m1017 -33 c-5 -8 -11 -8 -17 -2 -6 6 -7 16 -3 22 5 8 11 8 17 2 6 -6 7
-16 3 -22z m-352 -10 c3 -11 1 -20 -4 -20 -4 0 -13 9 -19 20 -8 16 -8 20 3 20
8 0 17 -9 20 -20z m-2123 0 c0 -5 -2 -10 -4 -10 -3 0 -8 5 -11 10 -3 6 -1 10
4 10 6 0 11 -4 11 -10z m46 -25 c-6 -22 -9 -25 -21 -15 -19 16 -19 30 0 30 8
0 15 5 15 12 0 6 3 9 6 5 4 -3 3 -18 0 -32z m62 18 c-10 -2 -26 -2 -35 0 -10
3 -2 5 17 5 19 0 27 -2 18 -5z m2552 -3 c0 -5 -4 -10 -10 -10 -5 0 -10 -7 -10
-15 0 -8 -7 -15 -15 -15 -16 0 -19 9 -9 34 7 17 44 22 44 6z m-1322 -18 c2 -7
-6 -12 -17 -12 -21 0 -27 11 -14 24 9 9 26 2 31 -12z m143 -15 c-8 -8 -11 -7
-11 4 0 20 13 34 18 19 3 -7 -1 -17 -7 -23z m-1731 7 c0 -2 -9 -4 -20 -4 -11
0 -20 4 -20 9 0 5 9 7 20 4 11 -3 20 -7 20 -9z m2120 6 c0 -5 -7 -10 -15 -10
-8 0 -15 5 -15 10 0 6 7 10 15 10 8 0 15 -4 15 -10z m-1372 -12 c-3 -13 -40
-37 -47 -31 -4 3 38 43 46 43 1 0 2 -6 1 -12z m-708 -30 c0 -6 -6 -5 -15 2 -8
7 -15 14 -15 16 0 2 7 1 15 -2 8 -4 15 -11 15 -16z m1350 12 c-19 -13 -30 -13
-30 0 0 6 10 10 23 10 18 0 19 -2 7 -10z m190 1 c0 -5 -12 -11 -27 -14 -26 -5
-26 -4 -8 9 22 16 35 18 35 5z m54 -6 c-10 -8 -23 -15 -28 -15 -6 0 -1 7 10
15 10 8 23 15 28 15 6 0 1 -7 -10 -15z m-213 -32 c13 -16 12 -17 -3 -4 -10 7
-18 15 -18 17 0 8 8 3 21 -13z m109 -3 c0 -5 -5 -10 -11 -10 -5 0 -7 -4 -4
-10 3 -6 -1 -7 -9 -4 -23 9 -20 34 4 34 11 0 20 -4 20 -10z m-1310 -14 c0 -2
-7 -7 -16 -10 -8 -3 -12 -2 -9 4 6 10 25 14 25 6z m2517 -28 c-3 -8 -6 -5 -6
6 -1 11 2 17 5 13 3 -3 4 -12 1 -19z m-2181 -15 c-9 -30 5 -40 61 -45 9 -1 10
-5 3 -13 -8 -9 -4 -12 12 -11 13 0 22 -4 21 -11 -2 -7 4 -10 12 -7 9 4 15 0
15 -7 -1 -34 -44 -58 -58 -33 -5 9 -12 15 -15 15 -30 -4 -38 3 -49 42 -10 40
-14 44 -40 41 -37 -5 -35 7 5 28 41 21 39 21 33 1z m2084 -13 c5 0 7 -7 3 -16
-5 -13 1 -13 34 4 31 16 40 18 40 7 0 -8 -5 -11 -10 -8 -6 3 -7 1 -3 -5 4 -6
13 -9 21 -5 8 3 15 0 15 -6 0 -15 -43 -14 -59 2 -11 10 -13 10 -7 0 4 -8 1
-13 -8 -13 -9 0 -16 -8 -16 -17 0 -10 4 -14 8 -8 12 16 72 16 72 0 0 -8 -5
-17 -10 -20 -7 -5 -8 -11 -1 -19 16 -19 -41 -14 -63 7 -23 20 -32 21 -41 7 -4
-6 -11 -7 -17 -4 -7 5 -8 2 -3 -5 5 -9 10 -10 18 -2 17 17 26 13 22 -8 -2 -11
1 -31 8 -44 l11 -23 28 30 c16 17 27 24 26 16 -2 -8 -7 -18 -13 -22 -6 -5 -5
-8 3 -8 6 0 21 9 32 20 16 16 24 18 39 8 24 -15 16 -48 -13 -49 -11 0 -15 -3
-8 -6 6 -2 12 -11 12 -18 0 -8 8 -19 18 -25 13 -9 13 -10 1 -7 -24 8 -41 -8
-41 -38 0 -18 -3 -23 -9 -14 -4 7 -5 17 -2 23 3 5 1 6 -6 2 -6 -4 -9 -12 -6
-17 4 -5 1 -9 -4 -9 -6 0 -11 -4 -11 -9 0 -11 50 -5 63 8 6 6 19 11 29 11 12
0 15 5 11 16 -5 14 -3 15 18 3 13 -7 27 -14 32 -15 4 -1 10 -3 15 -4 4 -1 11
-2 16 -1 5 1 6 -7 3 -18 -3 -12 0 -19 6 -18 20 4 17 -27 -4 -53 -11 -14 -18
-19 -14 -12 3 6 1 12 -5 12 -7 0 -9 -7 -6 -16 7 -17 -64 -94 -87 -94 -6 0 -22
-15 -33 -33 -18 -27 -32 -36 -78 -46 -36 -8 -60 -19 -66 -32 -12 -22 -30 -25
-30 -6 0 8 -11 19 -25 25 -15 7 -25 8 -25 2 0 -6 -8 -10 -17 -10 -12 0 -14 -3
-6 -8 8 -5 9 -13 3 -22 -6 -8 -10 -11 -10 -6 0 5 -6 4 -13 -2 -10 -8 -18 -5
-31 13 -24 32 -32 31 -40 -1 -5 -20 -10 -24 -19 -15 -17 17 -31 13 -16 -5 8
-10 9 -18 3 -22 -11 -7 14 -35 34 -40 15 -3 16 14 2 23 -13 8 -3 25 14 25 17
0 27 -61 13 -78 -6 -7 -16 -11 -24 -8 -7 3 -13 4 -13 3 0 -1 4 -17 9 -35 5
-17 6 -32 1 -32 -4 0 -6 -9 -3 -19 3 -13 11 -18 21 -14 14 5 15 4 4 -8 -11
-12 -15 -11 -26 4 -7 9 -19 17 -25 17 -7 0 -10 4 -7 9 3 4 -4 19 -16 32 -14
17 -19 19 -15 7 18 -46 19 -53 9 -39 -6 8 -17 11 -25 8 -8 -3 -26 1 -40 8 -16
8 -27 9 -29 3 -2 -5 -14 0 -27 11 -19 16 -27 18 -38 10 -7 -7 -11 -14 -8 -17
3 -3 1 -10 -5 -16 -17 -22 7 -37 64 -40 54 -4 56 -3 50 18 -3 11 6 3 21 -19
15 -22 37 -48 49 -58 l21 -19 -28 7 c-34 7 -34 -14 1 -30 12 -5 22 -18 24 -29
2 -12 13 -23 28 -26 l24 -6 -31 -22 c-17 -12 -38 -22 -47 -22 -9 0 -16 -4 -16
-10 0 -5 -11 -12 -25 -16 -14 -3 -25 -10 -25 -14 0 -17 -270 -140 -381 -174
-118 -37 -173 -44 -184 -26 -4 6 -16 8 -27 4 -14 -4 -18 -2 -14 5 5 7 1 9 -9
5 -8 -4 -22 -1 -30 6 -8 6 -19 9 -25 5 -5 -3 -10 -1 -10 5 0 6 -4 8 -10 5 -5
-3 -10 -2 -10 3 0 5 28 13 63 16 82 10 116 17 115 25 -1 3 2 14 7 24 6 15 18
18 64 16 35 -2 66 2 81 11 l25 15 -22 3 c-13 2 -23 8 -23 14 0 10 -16 8 -53
-7 -13 -5 -16 -3 -12 7 6 16 -37 28 -97 28 -16 0 -28 3 -28 8 0 4 -24 7 -53 8
-28 0 -71 4 -94 7 -27 5 -43 3 -43 -3 0 -5 12 -10 26 -10 14 0 52 -6 83 -14
31 -8 82 -17 114 -19 71 -5 90 -19 22 -16 -28 1 -59 -2 -69 -6 -14 -6 -17 -5
-11 4 6 10 3 11 -12 2 -11 -6 -23 -8 -27 -4 -7 7 -60 11 -232 17 -99 3 -121 1
-121 -10 0 -14 6 -15 249 -18 54 0 98 -4 98 -8 0 -5 -22 -8 -49 -8 -27 0 -58
-3 -68 -7 -15 -6 -13 -9 12 -14 l30 -7 -32 -1 c-18 0 -33 4 -33 9 0 6 -9 10
-20 10 -11 0 -20 -4 -20 -8 0 -5 -6 -9 -12 -10 -7 -1 -28 -5 -47 -8 -28 -5
-33 -4 -29 8 5 12 -2 14 -35 11 -23 -2 -58 -10 -78 -18 -32 -12 -39 -12 -55 0
-23 17 -38 19 -28 3 4 -7 3 -8 -5 -4 -6 4 -19 2 -28 -6 -14 -11 -16 -11 -8 1
6 11 4 13 -8 8 -9 -3 -19 -3 -21 2 -3 4 -45 8 -95 8 -49 1 -99 4 -111 8 -15 5
-20 4 -16 -4 5 -8 -10 -11 -48 -11 -30 0 -58 -4 -61 -10 -9 -15 -48 -12 -71 5
-18 14 -18 14 2 9 12 -3 25 -1 28 5 4 6 17 11 29 12 19 0 20 1 4 8 -30 11 55
43 108 40 24 -2 47 0 51 4 4 4 12 3 18 -2 6 -5 36 -12 67 -15 31 -4 66 -9 78
-11 25 -5 26 1 6 21 -8 9 -15 21 -15 27 0 7 5 4 11 -5 11 -19 39 -25 39 -8 0
6 -11 15 -25 22 -13 6 -22 15 -19 20 3 5 16 3 28 -5 19 -13 22 -13 22 3 0 11
-6 15 -18 12 -17 -4 -23 8 -18 33 1 5 -2 6 -7 2 -4 -5 -8 -14 -8 -20 0 -7 -9
-11 -20 -10 -11 1 -14 0 -7 -3 6 -3 12 -12 12 -19 0 -7 -6 -15 -12 -18 -9 -3
-7 -10 7 -21 l20 -17 -20 9 c-11 5 -37 8 -57 7 -22 -1 -39 4 -42 11 -3 9 6 12
32 9 34 -3 38 -1 40 23 1 14 7 29 13 33 7 4 -2 10 -20 14 -17 3 -31 11 -31 16
0 5 -4 9 -10 9 -5 0 -7 -7 -4 -15 4 -8 1 -15 -5 -15 -6 0 -10 -3 -10 -7 3 -20
-2 -24 -16 -13 -13 11 -13 15 -3 21 10 7 10 11 0 21 -8 7 -12 9 -10 3 3 -10
-4 -15 -23 -15 -5 0 -8 4 -5 9 8 12 -18 21 -42 14 -11 -2 -23 0 -26 6 -6 10 6
15 27 12 4 0 7 6 7 15 0 8 5 12 10 9 6 -4 8 -9 6 -13 -2 -4 10 -8 27 -8 18 -1
56 -5 85 -9 40 -6 52 -4 52 6 0 7 7 3 16 -9 10 -15 26 -22 47 -22 30 -1 31 -1
13 -15 -11 -8 -16 -15 -11 -15 11 0 45 31 45 40 0 4 -6 8 -12 7 -35 -1 -47 4
-42 17 3 9 14 13 27 10 12 -3 36 -6 53 -8 17 -1 36 -6 43 -10 7 -4 24 -5 39
-1 40 10 8 24 -58 26 -30 1 -43 4 -27 6 15 2 27 9 27 14 0 6 8 5 21 -1 24 -13
41 -4 19 11 -13 8 -13 10 0 19 13 8 13 10 1 10 -11 0 -12 3 -4 11 13 13 36 3
28 -12 -4 -5 1 -9 9 -9 9 0 16 9 16 21 0 11 -4 18 -8 15 -4 -2 -14 5 -21 17
-11 18 -11 20 0 10 20 -19 31 -16 24 7 -5 14 -2 20 9 20 9 0 16 -4 16 -10 0
-5 8 -10 18 -10 13 0 14 -2 4 -9 -11 -7 -11 -9 2 -14 9 -4 16 -2 16 2 0 5 10
7 23 5 l22 -5 -23 13 c-15 7 -22 18 -19 30 5 19 -7 25 -17 9 -3 -5 -15 -7 -26
-4 -11 3 -17 9 -14 14 5 9 -34 21 -75 23 -35 1 -33 20 2 24 15 2 25 8 21 14
-4 6 3 8 17 6 13 -2 23 -9 22 -15 -3 -16 21 -10 41 9 10 11 12 19 6 23 -6 4
-7 11 -4 17 4 6 10 5 15 -3 6 -10 9 -11 9 -1 0 14 37 17 42 3 4 -13 70 -18 69
-6 -1 6 -15 9 -31 9 -19 -1 -30 3 -30 12 0 9 -6 11 -17 7 -16 -6 -16 -5 -4 10
9 11 21 15 34 11 13 -4 17 -2 13 5 -4 6 -15 11 -24 11 -15 1 -15 2 2 15 18 14
18 15 2 15 -15 0 -16 2 -2 15 8 9 33 15 60 15 25 0 48 5 51 10 3 6 15 10 26
10 11 0 17 -4 14 -10 -3 -5 -15 -10 -26 -10 -10 0 -19 -4 -19 -9 0 -5 -9 -13
-20 -16 -26 -8 -26 -20 0 -22 11 -1 18 2 15 7 -3 6 1 7 9 4 11 -4 16 0 16 10
0 9 4 16 9 16 6 0 6 -12 1 -31 -5 -16 -6 -37 -3 -46 4 -11 2 -14 -5 -9 -7 4
-12 2 -12 -3 0 -6 8 -11 18 -11 12 0 18 -9 20 -26 2 -23 -1 -25 -24 -20 -17 5
-23 3 -19 -4 4 -6 -6 -10 -24 -10 -16 0 -31 5 -33 12 -3 8 -6 7 -10 -3 -5 -12
4 -16 40 -18 44 -2 72 -14 72 -31 0 -5 -17 -6 -37 -4 -21 2 -66 5 -100 8 -59
4 -62 3 -52 -15 5 -10 14 -19 20 -19 6 0 7 5 3 12 -4 7 -3 8 5 4 6 -4 8 -12 5
-18 -5 -7 9 -9 44 -6 50 5 66 -7 32 -25 -10 -5 -8 -6 6 -3 13 2 28 -4 38 -15
15 -18 18 -18 42 -3 28 19 18 33 -22 28 -47 -5 -23 29 28 40 16 3 20 17 8 31
-18 21 2 44 23 27 8 -7 18 -8 22 -4 5 4 5 1 1 -6 -6 -10 -11 -10 -21 -2 -9 8
-15 8 -20 0 -3 -5 2 -14 12 -18 10 -4 19 -13 21 -20 1 -8 -2 -11 -8 -7 -5 3
-10 1 -10 -5 0 -7 9 -14 20 -17 11 -3 17 -9 14 -14 -3 -5 2 -9 10 -9 9 0 16 5
16 11 0 5 4 8 9 4 6 -3 25 4 43 15 28 18 30 20 8 15 -18 -4 -28 0 -37 14 -12
18 -10 20 17 16 17 -2 28 0 25 6 -9 13 9 11 25 -3 12 -11 12 -10 2 3 -6 9 -10
19 -7 22 3 4 2 5 -1 2 -4 -2 -16 1 -28 7 -11 7 -24 11 -28 10 -5 -1 -8 2 -8 7
0 5 -10 12 -22 16 -13 3 -18 9 -12 11 7 3 10 13 7 23 -2 10 4 32 15 50 18 29
20 30 25 12 3 -14 0 -21 -9 -21 -12 0 -12 -4 -2 -20 12 -18 13 -18 25 10 6 17
15 30 18 30 3 0 1 -9 -5 -19 -14 -27 -13 -30 10 -24 11 3 20 0 20 -6 0 -5 7
-8 15 -5 13 5 13 8 0 21 -8 8 -15 15 -15 16 0 1 25 1 55 1 30 -1 58 2 61 7 3
5 13 9 22 9 13 0 14 -2 3 -9 -9 -6 -4 -10 18 -13 17 -2 31 0 31 5 0 6 3 7 7 4
3 -4 11 -2 18 3 7 6 24 3 48 -10 36 -19 37 -20 55 -2 11 11 36 22 58 25 27 4
34 3 24 -3 -13 -8 -13 -10 1 -10 9 0 29 10 45 22 16 12 30 23 32 23 1 1 -2 14
-7 28 -8 21 -7 27 7 30 13 4 11 5 -5 6 -28 1 -37 16 -24 38 9 16 10 16 16 2 6
-16 39 -19 52 -4 5 4 2 5 -4 1 -7 -4 -13 -2 -13 3 0 6 7 11 15 11 8 0 15 3 16
8 0 4 2 18 5 31 2 13 0 29 -5 35 -5 6 -5 20 0 31 4 11 8 16 8 11 1 -15 41 41
41 58 0 9 -8 16 -19 16 -11 0 -22 4 -25 8 -6 10 51 72 66 72 5 0 6 5 2 12 -4
6 -3 8 3 5 16 -10 64 38 51 51 -19 19 9 42 42 36 22 -5 31 -1 39 14 6 12 7 22
2 24 -5 2 1 16 14 33 26 32 44 29 24 -4 -7 -11 -10 -23 -6 -27 9 -10 37 16 48
44 5 13 13 20 19 17 5 -3 11 0 11 7 1 7 3 5 6 -4 2 -10 8 -18 13 -18z m-1096
-7 c4 -5 13 -8 19 -8 7 0 12 -9 12 -20 0 -11 4 -26 9 -33 6 -10 2 -13 -15 -10
-18 2 -23 9 -22 26 2 13 -4 25 -12 28 -8 4 -15 10 -15 15 0 11 14 12 24 2z
m-1422 -20 c16 -20 18 -44 3 -40 -5 1 -9 8 -9 15 1 7 -5 11 -14 10 -9 -2 -18
5 -20 15 -2 10 3 17 11 17 8 0 21 -8 29 -17z m954 6 c4 -7 9 -8 13 -1 9 13 51
-4 51 -21 0 -8 -8 -21 -17 -28 -14 -12 -16 -12 -8 0 6 11 4 13 -8 8 -9 -3 -18
0 -21 9 -3 8 -11 13 -18 12 -6 -2 -14 5 -16 15 -4 19 13 23 24 6z m104 -13 c0
-23 -16 -27 -17 -5 -1 10 2 19 8 19 5 0 9 -6 9 -14z m1605 4 c-3 -5 0 -10 7
-10 21 0 38 -67 22 -88 -9 -12 -13 -13 -14 -3 0 7 -6 11 -15 7 -21 -8 -19 24
3 40 16 12 16 13 -4 14 -16 0 -21 6 -21 25 0 15 5 25 14 25 8 0 11 -4 8 -10z
m-2318 -20 c18 -22 16 -33 -8 -48 -19 -12 -23 -11 -36 8 -11 16 -18 19 -27 10
-6 -6 -11 -16 -11 -23 0 -20 -30 -19 -53 1 -24 21 -29 48 -9 55 20 6 47 -4 47
-19 0 -21 15 -17 35 10 20 26 44 29 62 6z m-205 -58 c4 -2 8 -17 8 -33 0 -29
27 -72 41 -63 4 2 11 -5 14 -17 5 -16 13 -20 31 -16 13 2 21 0 18 -5 -10 -16
26 -20 41 -4 13 12 21 13 36 6 15 -9 19 -7 20 7 1 10 6 1 11 -19 6 -21 14 -38
19 -38 4 0 5 7 2 17 -4 11 -3 14 5 9 7 -4 12 -14 12 -22 0 -8 10 -14 25 -14
29 0 33 -15 8 -29 -17 -10 -17 -10 0 -11 9 0 17 5 17 10 0 6 10 10 23 10 13 0
27 3 30 7 4 3 21 8 37 10 l31 3 -51 -50 c-28 -28 -46 -50 -41 -50 6 0 8 -7 5
-15 -5 -12 -9 -13 -21 -4 -10 9 -17 9 -25 1 -15 -15 -1 -32 28 -32 13 0 24 -4
24 -10 0 -15 -28 -12 -55 6 -14 9 -32 14 -40 10 -8 -3 -15 -1 -15 4 0 6 5 10
10 10 13 0 13 37 0 45 -6 4 -7 11 -4 17 4 6 -2 6 -15 -1 -19 -11 -21 -9 -22
16 -1 15 -1 32 0 36 1 5 -3 6 -9 2 -12 -7 -12 -3 -4 19 3 9 10 13 15 10 5 -3
9 2 9 11 0 13 -7 11 -35 -11 -36 -27 -45 -60 -23 -82 9 -9 9 -12 0 -12 -7 0
-12 3 -12 8 0 4 -11 12 -25 19 -26 12 -41 2 -32 -20 3 -7 -5 -12 -19 -12 -27
0 -30 5 -13 22 16 16 3 47 -16 39 -8 -3 -14 -2 -14 2 1 4 -2 18 -6 30 -6 18
-10 20 -16 10 -7 -10 -9 -10 -9 0 0 6 -9 12 -19 12 -11 0 -23 5 -26 10 -3 6
-17 10 -31 10 -15 0 -24 6 -24 15 0 8 -9 15 -20 15 -11 0 -20 4 -20 8 0 10
-61 33 -71 26 -5 -3 -9 2 -9 10 0 9 -6 16 -13 16 -7 0 -22 7 -33 15 -18 14
-18 15 6 11 14 -3 28 -5 31 -5 4 -1 19 -11 35 -23 15 -12 35 -23 43 -25 9 -1
17 -7 19 -12 2 -6 9 -11 15 -11 7 0 24 -7 40 -14 15 -8 27 -10 27 -5 0 6 7 6
19 -1 14 -7 22 -7 27 2 4 6 3 8 -4 4 -6 -3 -13 -2 -16 3 -3 5 1 11 9 15 11 4
13 11 6 28 -4 13 -6 29 -4 36 4 11 -8 16 -33 13 -7 -1 -14 8 -17 19 -3 11 -9
20 -14 19 -25 -4 -39 3 -39 21 0 12 5 19 12 16 7 -3 25 -1 41 3 25 7 30 4 43
-23 8 -17 18 -32 22 -34z m558 58 c0 -5 -5 -10 -11 -10 -5 0 -7 5 -4 10 3 6 8
10 11 10 2 0 4 -4 4 -10z m480 -10 c0 -5 -2 -10 -4 -10 -3 0 -8 5 -11 10 -3 6
-1 10 4 10 6 0 11 -4 11 -10z m-450 -10 c0 -5 -2 -10 -4 -10 -3 0 -8 5 -11 10
-3 6 -1 10 4 10 6 0 11 -4 11 -10z m1640 6 c0 -3 -4 -8 -10 -11 -5 -3 -10 -1
-10 4 0 6 5 11 10 11 6 0 10 -2 10 -4z m-1606 -48 c-5 -8 -1 -9 10 -5 14 6 15
3 6 -13 -14 -25 -27 -25 -35 0 -7 23 2 43 16 34 5 -3 6 -10 3 -16z m379 7 c-3
-9 -8 -14 -10 -11 -3 3 -2 9 2 15 9 16 15 13 8 -4z m-1228 -5 c8 -13 -5 -13
-25 0 -13 8 -13 10 2 10 9 0 20 -4 23 -10z m2368 -5 c-3 -9 -8 -14 -10 -11 -3
3 -2 9 2 15 9 16 15 13 8 -4z m-1657 -34 c7 -9 16 -11 25 -6 12 8 12 6 0 -8
-15 -18 -7 -72 9 -62 6 3 10 -1 10 -9 0 -9 5 -16 11 -16 5 0 7 6 3 13 -6 9 -5
9 7 0 11 -9 19 -8 34 3 17 13 18 16 5 24 -12 8 -10 10 8 10 13 0 21 -4 17 -9
-3 -5 -1 -12 5 -16 5 -3 10 -11 10 -17 0 -7 -6 -6 -15 2 -13 11 -19 7 -17 -11
1 -4 -8 -9 -18 -12 -11 -3 -20 0 -20 6 0 9 -2 9 -8 1 -11 -18 -52 2 -52 25 0
19 -36 48 -52 43 -10 -3 -48 30 -48 41 0 5 10 5 22 2 16 -6 20 -4 15 8 -13 34
19 26 49 -12z m220 30 c-7 -11 -46 -21 -46 -12 0 13 13 21 32 21 11 0 17 -4
14 -9z m199 -10 c-3 -6 -11 -11 -17 -11 -6 0 -6 6 2 15 14 17 26 13 15 -4z
m1032 3 c-3 -3 -12 -4 -19 -1 -8 3 -5 6 6 6 11 1 17 -2 13 -5z m-2558 -38 c-3
-3 -11 5 -18 17 -13 21 -12 21 5 5 10 -10 16 -20 13 -22z m61 19 c0 -8 5 -15
11 -15 5 0 7 -5 3 -12 -5 -7 -11 -5 -21 7 -16 22 -17 35 -3 35 6 0 10 -7 10
-15z m68 -28 c13 -21 14 -29 4 -39 -15 -15 -41 16 -42 50 0 30 17 25 38 -11z
m698 14 c6 -8 9 -22 7 -32 -4 -15 -9 -16 -31 -6 -29 13 -62 38 -62 47 0 13 76
5 86 -9z m724 15 c0 -3 -4 -8 -10 -11 -5 -3 -10 -1 -10 4 0 6 5 11 10 11 6 0
10 -2 10 -4z m150 -16 c0 -5 -4 -10 -9 -10 -6 0 -13 5 -16 10 -3 6 1 10 9 10
9 0 16 -4 16 -10z m-50 -14 c0 -7 -8 -20 -17 -27 -9 -8 -14 -9 -10 -3 6 11
-19 29 -35 26 -5 -1 -8 3 -8 8 0 6 16 10 35 10 23 0 35 -5 35 -14z m490 -16
c0 -5 -4 -10 -9 -10 -6 0 -13 5 -16 10 -3 6 1 10 9 10 9 0 16 -4 16 -10z
m-1346 -18 c3 -5 -1 -9 -9 -9 -8 0 -15 4 -15 9 0 4 4 8 9 8 6 0 12 -4 15 -8z
m280 1 c-5 -5 -12 -12 -16 -18 -4 -6 -8 -2 -8 8 0 9 7 17 17 17 9 0 12 -3 7
-7z m1166 -8 c-7 -9 -15 -13 -17 -11 -7 7 7 26 19 26 6 0 6 -6 -2 -15z m-2040
-17 c0 -6 -7 -5 -15 2 -13 11 -14 10 -9 -4 3 -9 1 -16 -5 -16 -12 0 -15 23 -5
33 8 8 34 -3 34 -15z m98 -6 c2 -7 -2 -10 -12 -6 -9 3 -16 11 -16 16 0 13 23
5 28 -10z m732 3 c-6 -8 -18 -11 -26 -8 -19 7 -10 18 16 20 17 2 19 -1 10 -12z
m660 -9 c0 -2 -7 -7 -16 -10 -8 -3 -12 -2 -9 4 6 10 25 14 25 6z m615 -18 c-1
-18 -9 -24 -32 -26 -31 -3 -60 19 -48 38 3 5 23 10 44 10 33 0 37 -3 36 -22z
m-2280 2 c3 -5 1 -10 -4 -10 -6 0 -11 5 -11 10 0 6 2 10 4 10 3 0 8 -4 11 -10z
m1015 -10 c-8 -6 -10 -10 -5 -10 6 0 2 -5 -8 -11 -11 -6 -22 -7 -26 -3 -3 5
-5 8 -3 7 2 -1 13 7 25 17 11 11 23 17 26 14 3 -3 -1 -9 -9 -14z m-790 6 c0
-3 -4 -8 -10 -11 -5 -3 -10 -1 -10 4 0 6 5 11 10 11 6 0 10 -2 10 -4z m1330
-9 c-14 -8 -24 -19 -22 -25 3 -17 -23 -15 -39 4 -17 21 3 34 51 34 35 0 35 0
10 -13z m120 3 c0 -5 -5 -10 -11 -10 -5 0 -7 5 -4 10 3 6 8 10 11 10 2 0 4 -4
4 -10z m-1550 -15 c7 -9 11 -17 8 -20 -2 -2 -12 4 -21 15 -9 11 -13 20 -8 20
5 0 14 -7 21 -15z m1283 -12 c-7 -2 -19 -2 -25 0 -7 3 -2 5 12 5 14 0 19 -2
13 -5z m344 -9 c-3 -3 -12 -4 -19 -1 -8 3 -5 6 6 6 11 1 17 -2 13 -5z m523 -4
c-8 -5 -22 -9 -30 -9 -10 0 -8 3 5 9 27 12 43 12 25 0z m-1759 -13 c-1 -12
-15 -9 -19 4 -3 6 1 10 8 8 6 -3 11 -8 11 -12z m614 1 c5 4 5 2 2 -4 -4 -6 5
-16 18 -22 19 -9 25 -9 25 1 1 6 9 3 18 -9 15 -17 20 -19 30 -7 7 7 10 19 6
26 -4 6 -4 9 1 5 4 -4 15 -2 23 5 13 10 14 8 8 -11 -5 -14 -3 -29 4 -37 17
-20 50 -19 50 1 0 12 6 15 21 11 20 -5 20 -4 4 12 -13 15 -13 19 -2 24 7 3 14
0 15 -6 1 -7 3 -23 4 -37 3 -23 7 -25 46 -23 l42 3 -21 -21 c-12 -12 -24 -17
-28 -13 -17 24 -169 20 -185 -5 -6 -9 -10 -10 -15 -2 -8 13 -71 -4 -83 -23 -5
-7 -8 -3 -9 9 0 11 -3 14 -6 7 -2 -6 -9 -9 -14 -6 -6 3 -18 -4 -28 -15 -22
-26 -31 -27 -31 -3 -1 12 -5 9 -16 -10 -24 -45 -58 -34 -60 19 -1 20 5 34 14
38 12 4 13 3 2 -10 -11 -13 -9 -15 14 -15 16 0 29 7 33 17 4 9 14 24 22 34 27
28 51 63 51 71 0 5 8 4 19 -1 10 -6 22 -7 26 -3z m1435 -1 c0 -18 -29 -55 -31
-39 -1 6 -2 18 -3 25 -3 18 3 27 20 27 8 0 14 -6 14 -13z m55 -15 c1 -13 -2
-25 -6 -28 -5 -2 -4 -16 2 -31 5 -14 7 -28 4 -31 -10 -10 -46 -9 -53 2 -10 17
-13 48 -3 42 5 -3 9 6 9 19 0 49 44 73 47 27z m-2409 -23 c8 -16 10 -29 5 -29
-11 0 -51 48 -51 61 0 18 31 -5 46 -32z m1641 27 c-3 -8 1 -20 9 -27 14 -11
13 -14 -6 -21 -22 -8 -23 -29 -2 -36 7 -2 10 2 6 12 -4 11 -1 16 10 16 9 0 15
-3 15 -7 -5 -28 4 -32 69 -32 76 1 131 14 149 36 10 14 15 13 36 -3 24 -20 27
-24 27 -49 0 -8 6 -12 14 -9 8 3 12 12 9 20 -5 14 28 20 85 15 12 -1 22 3 22
8 0 6 12 8 29 5 20 -4 30 -2 34 10 9 22 47 21 48 -1 0 -14 3 -13 11 5 12 23
28 30 28 11 0 -8 11 -9 33 -5 l32 6 -25 -16 c-24 -15 -56 -64 -41 -64 3 0 16
7 29 15 20 15 21 15 15 -2 -5 -15 -3 -16 8 -5 7 6 22 12 34 12 11 0 16 -4 10
-8 -5 -4 -11 -20 -12 -37 -3 -34 -59 -92 -85 -87 -17 3 -34 32 -19 32 5 0 11
-5 13 -12 5 -15 28 -1 28 18 0 9 -5 12 -12 8 -7 -4 -4 2 6 14 11 12 16 23 13
23 -25 5 -33 4 -44 -4 -7 -5 -10 -13 -7 -18 3 -5 -2 -12 -10 -15 -9 -3 -16
-13 -16 -21 0 -8 -7 -13 -17 -11 -11 2 -17 11 -15 21 2 9 -2 17 -9 17 -8 0 -7
5 2 18 13 16 12 16 -4 3 -10 -8 -16 -22 -14 -33 3 -10 1 -18 -4 -18 -4 0 -6
-8 -2 -17 5 -14 1 -13 -16 4 -25 26 -27 38 -5 29 8 -3 12 -2 9 4 -3 6 -12 10
-20 10 -20 0 -28 17 -17 36 5 9 11 15 13 14 9 -3 39 13 39 21 0 4 -6 6 -14 3
-8 -3 -17 -1 -20 4 -3 6 -14 8 -24 5 -15 -4 -19 -13 -17 -49 1 -36 -3 -47 -19
-56 -47 -26 -72 -8 -46 32 10 17 -5 40 -26 40 -17 0 -56 -38 -50 -48 3 -4 -10
-9 -27 -10 -18 -2 -33 -7 -35 -12 -2 -6 -11 -10 -20 -9 -11 0 -12 2 -4 6 15 6
16 24 1 21 -6 -2 -14 3 -16 10 -3 6 0 12 6 12 6 0 11 5 11 12 0 6 -7 5 -18 -5
-10 -9 -34 -20 -53 -23 -19 -4 -37 -12 -40 -17 -4 -6 -15 -6 -25 -2 -11 5 -26
8 -34 7 -10 -1 -11 0 -2 4 6 3 10 9 7 13 -6 11 -117 3 -129 -9 -12 -12 -39
-13 -32 -1 3 5 -25 9 -62 8 -82 0 -116 15 -109 48 2 15 -1 26 -10 29 -28 11
-42 6 -38 -13 2 -14 -1 -18 -15 -14 -10 3 -21 0 -24 -6 -4 -7 -1 -8 8 -5 9 3
16 1 16 -6 0 -6 -10 -10 -22 -8 -16 2 -23 10 -24 25 -1 12 2 20 7 18 4 -3 24
6 45 20 20 14 31 25 24 25 -7 0 -11 3 -7 6 8 8 77 -15 77 -27 0 -5 -4 -9 -10
-9 -5 0 -10 -4 -10 -10 0 -12 89 -13 108 -1 10 6 10 10 -3 21 -21 18 -19 29 9
36 15 3 26 14 28 26 2 16 12 22 41 25 28 3 37 0 37 -12 0 -19 14 -19 30 -1 6
8 18 12 26 9 8 -3 14 0 14 6 0 6 3 11 6 11 3 0 4 -6 1 -14z m-553 -21 c-23
-17 -34 -19 -34 -4 0 5 4 8 9 4 5 -3 12 -1 16 5 3 5 11 10 18 10 6 0 2 -7 -9
-15z m-1141 -9 c3 -8 0 -19 -6 -24 -9 -8 -12 -4 -12 14 0 27 10 32 18 10z
m247 4 c0 -5 -5 -10 -11 -10 -5 0 -7 5 -4 10 3 6 8 10 11 10 2 0 4 -4 4 -10z
m147 -12 c-3 -8 -6 -5 -6 6 -1 11 2 17 5 13 3 -3 4 -12 1 -19z m52 -19 c-18
-11 -19 -8 -12 20 5 21 7 21 16 6 6 -12 5 -20 -4 -26z m-119 6 c7 -9 8 -15 2
-15 -5 0 -12 7 -16 15 -3 8 -4 15 -2 15 2 0 9 -7 16 -15z m1690 5 c0 -5 -7
-10 -16 -10 -8 0 -12 5 -9 10 3 6 10 10 16 10 5 0 9 -4 9 -10z m-1803 -70 c4
0 9 -6 11 -14 5 -25 -16 -19 -34 9 -9 14 -22 25 -29 25 -7 0 -16 7 -19 16 -14
36 -4 37 28 1 19 -21 38 -38 43 -37z m91 45 c-3 -3 -9 2 -12 12 -6 14 -5 15 5
6 7 -7 10 -15 7 -18z m380 0 c-3 -3 -9 2 -12 12 -6 14 -5 15 5 6 7 -7 10 -15
7 -18z m-106 -7 c-11 -11 -32 -3 -32 12 0 4 9 6 21 3 13 -4 17 -9 11 -15z m54
-34 c-8 -8 -20 -14 -27 -14 -8 0 -5 7 7 19 10 10 22 16 27 14 4 -2 1 -11 -7
-19z m-195 2 c5 3 9 0 9 -5 0 -6 -7 -11 -15 -11 -8 0 -15 8 -14 18 0 10 3 12
6 4 2 -6 9 -10 14 -6z m-71 -6 c0 -5 -2 -10 -4 -10 -3 0 -8 5 -11 10 -3 6 -1
10 4 10 6 0 11 -4 11 -10z m2070 -4 c0 -3 -4 -8 -10 -11 -5 -3 -10 -1 -10 4 0
6 5 11 10 11 6 0 10 -2 10 -4z m-2029 -43 c13 -16 12 -17 -3 -4 -10 7 -18 15
-18 17 0 8 8 3 21 -13z m589 7 c0 -5 -5 -10 -11 -10 -5 0 -7 5 -4 10 3 6 8 10
11 10 2 0 4 -4 4 -10z m-375 -6 c13 -5 14 -8 3 -15 -19 -13 -28 -11 -28 6 0
17 2 18 25 9z m407 -19 c4 -20 2 -23 -8 -14 -7 6 -10 17 -7 25 7 20 10 18 15
-11z m-642 11 c0 -3 -4 -8 -10 -11 -5 -3 -10 -1 -10 4 0 6 5 11 10 11 6 0 10
-2 10 -4z m796 -8 c4 -6 -1 -17 -10 -24 -10 -7 -13 -15 -7 -18 5 -4 13 -2 16
4 5 8 11 7 21 -1 8 -6 14 -8 14 -4 0 4 7 2 15 -5 13 -11 14 -10 9 4 -3 9 -1
16 5 16 6 0 11 -7 11 -15 0 -16 9 -19 34 -9 9 3 13 10 10 15 -3 5 3 9 12 9 14
0 15 -3 6 -12 -7 -7 -12 -18 -12 -26 0 -12 3 -12 16 -1 13 10 17 10 24 -1 5
-8 27 -15 49 -17 32 -2 39 1 34 12 -3 8 0 15 7 15 9 0 10 3 1 13 -15 19 -4 27
38 27 48 0 72 -15 41 -25 -18 -6 -20 -9 -9 -16 20 -12 31 -11 23 3 -5 7 -3 8
5 4 7 -5 19 0 27 10 14 18 15 17 8 -6 -4 -14 -9 -31 -11 -37 -3 -7 0 -13 6
-13 5 0 0 -10 -12 -22 -18 -19 -23 -20 -29 -8 -6 13 -7 13 -7 0 -2 -26 -18
-43 -32 -35 -9 6 -8 10 7 16 16 6 16 8 2 8 -9 1 -18 11 -20 24 -3 20 -7 22
-63 19 -114 -5 -126 -4 -141 9 -9 8 -38 14 -64 14 -42 0 -47 -2 -39 -17 12
-22 11 -38 -1 -38 -5 0 -10 7 -10 15 0 8 -4 15 -10 15 -5 0 -7 -7 -3 -16 5
-13 2 -15 -18 -9 -38 11 -69 34 -69 50 0 8 -5 15 -11 15 -6 0 -9 -9 -6 -20 6
-24 1 -25 -21 -3 -16 16 -17 15 -21 -2 -2 -13 -5 -14 -11 -5 -4 7 -5 20 -3 30
4 14 10 17 27 11 11 -4 30 -6 41 -6 27 3 105 43 105 55 0 14 17 13 26 -2z
m-1230 -15 c16 -21 18 -37 4 -28 -13 8 -33 45 -24 45 4 0 13 -8 20 -17z m583
-38 c1 -6 -14 -11 -31 -12 -27 -1 -29 0 -10 5 13 4 22 12 22 17 -1 6 -6 9 -11
7 -5 -1 -4 7 3 18 13 20 13 20 20 -2 3 -13 6 -28 7 -33z m136 45 c3 -6 -1 -7
-9 -4 -18 7 -21 14 -7 14 6 0 13 -4 16 -10z m-231 -9 c3 -4 -6 -6 -19 -3 -14
2 -25 6 -25 8 0 8 39 4 44 -5z m676 5 c0 -3 -4 -8 -10 -11 -5 -3 -10 -1 -10 4
0 6 5 11 10 11 6 0 10 -2 10 -4z m120 -5 c0 -5 -7 -11 -15 -15 -15 -5 -20 5
-8 17 9 10 23 9 23 -2z m50 -17 c0 -8 -4 -12 -10 -9 -5 3 -10 10 -10 16 0 5 5
9 10 9 6 0 10 -7 10 -16z m-700 -4 c0 -5 -2 -10 -4 -10 -3 0 -8 5 -11 10 -3 6
-1 10 4 10 6 0 11 -4 11 -10z m-196 -12 c4 -10 8 -10 11 -2 7 14 45 6 45 -9 0
-6 6 -3 13 6 11 16 12 15 12 -7 0 -13 -2 -22 -4 -20 -2 2 -11 -2 -19 -9 -12
-9 -16 -9 -19 1 -3 6 -10 12 -17 12 -7 0 -21 9 -31 20 -10 11 -13 20 -7 20 6
0 13 -6 16 -12z m176 -2 c0 -3 -4 -8 -10 -11 -5 -3 -10 -1 -10 4 0 6 5 11 10
11 6 0 10 -2 10 -4z m177 -46 c11 -7 12 -10 3 -7 -8 2 -20 -3 -26 -11 -6 -8
-28 -15 -51 -16 -23 0 -41 -5 -40 -10 1 -4 -4 -11 -12 -14 -10 -3 -12 0 -8 12
5 13 3 16 -11 12 -20 -6 -60 20 -47 31 4 5 10 2 12 -4 3 -7 9 -13 14 -13 6 0
7 5 4 10 -3 6 -1 10 4 10 6 0 11 -5 11 -10 0 -6 8 -5 20 2 17 11 22 11 29 0 9
-15 47 -11 64 8 8 8 8 11 0 6 -7 -4 -10 0 -8 11 2 10 4 23 5 28 1 6 5 0 10
-12 5 -12 17 -26 27 -33z m227 35 c-4 -8 -12 -15 -20 -15 -17 0 -18 17 -1 23
22 9 27 7 21 -8z m-84 -5 c8 -5 11 -12 8 -16 -10 -9 -38 3 -38 16 0 12 10 13
30 0z m-242 -7 c-10 -2 -26 -2 -35 0 -10 3 -2 5 17 5 19 0 27 -2 18 -5z m-110
-15 c-3 -7 -13 -15 -23 -16 -15 -4 -16 -2 -4 12 17 19 32 21 27 4z m-168 -18
c0 -6 15 -19 33 -30 17 -11 28 -20 22 -20 -5 0 -3 -5 5 -10 8 -5 10 -10 4 -10
-6 0 -23 11 -38 25 -15 14 -31 25 -35 25 -5 0 -11 7 -15 15 -3 9 0 15 9 15 8
0 15 -5 15 -10z m559 -11 c14 -2 26 -10 28 -16 4 -10 -4 -9 -28 1 -19 8 -35
20 -37 28 -2 9 -1 10 5 2 4 -7 19 -14 32 -15z m166 -4 c18 -7 18 -9 3 -12 -19
-5 -51 20 -41 31 4 3 9 3 12 -2 3 -5 15 -12 26 -17z m755 15 c0 -5 -4 -10 -10
-10 -5 0 -10 5 -10 10 0 6 5 10 10 10 6 0 10 -4 10 -10z m-1020 -31 c0 -6 10
-14 23 -20 21 -9 21 -9 -3 -4 -14 2 -40 5 -57 5 -32 0 -32 1 -15 18 17 18 52
18 52 1z m1000 11 c12 -8 10 -10 -9 -10 -16 0 -21 -4 -17 -15 3 -8 1 -15 -4
-15 -6 0 -10 5 -10 10 0 6 -7 10 -15 10 -23 0 -18 18 8 23 12 2 24 5 27 5 3 1
12 -3 20 -8z m830 -32 c0 -5 -4 -8 -10 -8 -5 0 -10 10 -10 23 0 18 2 19 10 7
5 -8 10 -18 10 -22z m-1945 12 c3 -6 -4 -10 -17 -10 -18 0 -20 2 -8 10 19 12
18 12 25 0z m586 -2 c0 -9 2 -9 5 -2 3 7 18 9 45 4 22 -4 58 -7 80 -6 21 1 39
-1 39 -4 0 -6 -33 -9 -131 -14 -13 0 -15 -5 -8 -23 10 -27 -2 -30 -25 -7 -9 8
-13 21 -10 27 5 9 4 9 -5 1 -10 -9 -10 -17 -2 -32 16 -30 14 -34 -9 -20 -22
14 -26 39 -10 69 12 21 30 25 31 7z m-286 -8 c8 -13 -15 -13 -35 0 -12 8 -11
10 7 10 12 0 25 -4 28 -10z m-87 -26 c5 3 9 -2 8 -12 -1 -11 14 -24 41 -37 45
-21 54 -33 25 -31 -17 1 -31 11 -70 47 -9 9 -25 19 -34 22 -10 4 -18 14 -18
23 0 16 1 16 19 0 11 -10 24 -15 29 -12z m149 10 c-3 -3 -12 -4 -19 -1 -8 3
-5 6 6 6 11 1 17 -2 13 -5z m-891 -41 c3 -10 10 -26 15 -35 13 -25 12 -28 -11
-28 -10 0 -24 9 -30 19 -13 26 -13 34 3 25 10 -6 10 -4 0 7 -17 18 -16 29 2
29 9 0 18 -8 21 -17z m401 11 c-3 -3 -12 -4 -19 -1 -8 3 -5 6 6 6 11 1 17 -2
13 -5z m630 -41 c0 -7 -8 -13 -17 -13 -11 0 -17 10 -18 32 -3 32 -2 32 16 13
10 -11 19 -26 19 -32z m23 37 c0 -5 -5 -10 -11 -10 -5 0 -7 5 -4 10 3 6 8 10
11 10 2 0 4 -4 4 -10z m-445 -9 c3 -5 1 -12 -4 -15 -5 -3 -11 1 -15 9 -6 16 9
21 19 6z m1002 3 c-3 -3 -12 -4 -19 -1 -8 3 -5 6 6 6 11 1 17 -2 13 -5z
m-1332 -14 c3 -5 1 -10 -4 -10 -6 0 -11 5 -11 10 0 6 2 10 4 10 3 0 8 -4 11
-10z m131 -12 l19 -23 -25 20 c-14 11 -27 21 -29 22 -2 2 0 3 6 3 5 0 18 -10
29 -22z m151 16 c-3 -3 -12 -4 -19 -1 -8 3 -5 6 6 6 11 1 17 -2 13 -5z m423 2
c0 -3 -4 -8 -10 -11 -5 -3 -10 -1 -10 4 0 6 5 11 10 11 6 0 10 -2 10 -4z m729
-17 c-22 -14 -33 -10 -19 6 7 8 17 12 22 9 6 -4 5 -10 -3 -15z m-1454 -9 c4
-6 12 -7 18 -4 9 5 9 4 1 -6 -13 -14 -58 -4 -49 11 8 12 22 12 30 -1z m693 -2
c-2 -4 6 -13 16 -21 17 -13 18 -14 1 -20 -12 -5 -18 -1 -22 13 -3 11 -9 20
-14 20 -12 0 -11 -17 1 -25 6 -4 8 -10 5 -15 -3 -5 3 -7 13 -5 10 2 25 -1 33
-6 11 -7 10 -9 -4 -9 -10 0 -15 -5 -12 -11 4 -5 -10 -3 -31 6 -21 9 -42 21
-46 28 -10 15 -5 32 10 32 6 0 17 6 24 13 12 12 32 12 26 0z m137 -8 c3 -5 1
-10 -4 -10 -6 0 -11 5 -11 10 0 6 2 10 4 10 3 0 8 -4 11 -10z m45 -20 c0 -5
-2 -10 -4 -10 -3 0 -8 5 -11 10 -3 6 -1 10 4 10 6 0 11 -4 11 -10z m-90 -12
c0 -6 -3 -8 -7 -5 -3 4 -13 1 -22 -6 -14 -11 -14 -10 -2 6 15 20 31 22 31 5z
m140 3 c0 -6 -4 -13 -10 -16 -5 -3 -10 1 -10 9 0 9 5 16 10 16 6 0 10 -4 10
-9z m1362 -3 c-6 -7 -24 -12 -41 -12 -54 2 -57 7 -11 14 25 4 49 8 54 8 5 1 4
-4 -2 -10z m-2405 -20 c-3 -8 -6 -5 -6 6 -1 11 2 17 5 13 3 -3 4 -12 1 -19z
m1013 12 c0 -5 -5 -10 -11 -10 -5 0 -7 5 -4 10 3 6 8 10 11 10 2 0 4 -4 4 -10z
m1430 6 c0 -2 -8 -10 -17 -17 -16 -13 -17 -12 -4 4 13 16 21 21 21 13z m-2276
-46 c6 -8 1 -7 -11 4 -13 10 -20 23 -16 29 4 7 8 6 11 -3 3 -8 10 -22 16 -30z
m893 25 c0 -8 -9 -15 -20 -15 -16 0 -17 3 -7 15 7 8 16 15 20 15 3 0 7 -7 7
-15z m1170 -1 c-3 -3 -12 -4 -19 -1 -8 3 -5 6 6 6 11 1 17 -2 13 -5z m-1304
-40 c4 -8 16 -14 25 -14 14 0 14 -2 3 -9 -9 -6 -19 -4 -29 6 -8 8 -26 19 -39
24 -13 5 -21 13 -18 19 7 12 46 -6 58 -26z m-558 6 c8 -13 -5 -13 -25 0 -13 8
-13 10 2 10 9 0 20 -4 23 -10z m78 -6 c9 -4 17 -10 17 -15 0 -14 -13 -10 -40
12 -14 11 -18 18 -10 15 8 -3 23 -9 33 -12z m77 -15 c0 -5 -9 -9 -20 -9 -22 0
-27 16 -7 23 15 5 27 -1 27 -14z m550 17 c0 -3 -4 -8 -10 -11 -5 -3 -10 -1
-10 4 0 6 5 11 10 11 6 0 10 -2 10 -4z m-1006 -35 c7 -10 -37 -7 -74 5 l-25 8
30 6 c30 6 59 -2 69 -19z m486 19 c0 -5 -4 -10 -10 -10 -5 0 -10 5 -10 10 0 6
5 10 10 10 6 0 10 -4 10 -10z m-210 -10 c0 -5 -4 -10 -10 -10 -5 0 -10 5 -10
10 0 6 5 10 10 10 6 0 10 -4 10 -10z m1966 -23 c-4 7 1 9 15 6 17 -5 18 -8 7
-19 -10 -9 -27 -11 -68 -5 -30 5 -42 9 -27 10 16 0 26 5 22 10 -10 16 29 17
43 1 8 -8 11 -10 8 -3z m-2001 2 c10 -14 1 -21 -19 -13 -9 3 -13 10 -10 15 7
12 21 11 29 -2z m432 5 c-3 -3 -12 -4 -19 -1 -8 3 -5 6 6 6 11 1 17 -2 13 -5z
m258 -4 c-27 -12 -35 -12 -35 0 0 6 12 10 28 9 24 0 25 -1 7 -9z m-605 -10 c0
-5 -2 -10 -4 -10 -3 0 -8 5 -11 10 -3 6 -1 10 4 10 6 0 11 -4 11 -10z m75 0
c3 -5 1 -10 -4 -10 -6 0 -11 5 -11 10 0 6 2 10 4 10 3 0 8 -4 11 -10z m84 -21
c14 -2 26 -10 29 -18 3 -8 0 -11 -6 -7 -6 3 -24 8 -42 10 -38 4 -49 14 -30 26
8 5 17 5 20 0 3 -4 16 -10 29 -11z m71 9 c0 -4 -4 -8 -9 -8 -6 0 -12 4 -15 8
-3 5 1 9 9 9 8 0 15 -4 15 -9z m-394 -23 c21 -18 24 -25 13 -25 -9 0 -24 11
-33 25 -21 31 -17 31 20 0z m146 -3 c-19 -6 -44 6 -37 18 4 7 14 6 28 -2 14
-7 17 -13 9 -16z m66 19 c10 -6 9 -10 -7 -14 -14 -3 -21 0 -21 9 0 16 9 18 28
5z m-284 -22 c-3 -5 -10 -7 -15 -3 -5 3 -7 10 -3 15 3 5 10 7 15 3 5 -3 7 -10
3 -15z m321 0 c-10 -15 -25 -10 -19 6 4 8 10 12 15 9 5 -3 7 -10 4 -15z m370
11 c-3 -5 0 -7 8 -4 8 3 18 1 22 -5 4 -7 -7 -11 -29 -11 -19 0 -38 5 -42 12
-4 7 -3 8 4 4 7 -4 12 -2 12 3 0 6 7 11 16 11 8 0 12 -4 9 -10z m-230 -10 c3
-5 -1 -10 -9 -10 -9 0 -16 5 -16 10 0 6 4 10 9 10 6 0 13 -4 16 -10z m345 0
c0 -5 -2 -10 -4 -10 -3 0 -8 5 -11 10 -3 6 -1 10 4 10 6 0 11 -4 11 -10z
m-597 -30 c3 -11 1 -18 -4 -14 -5 3 -9 12 -9 20 0 20 7 17 13 -6z m171 5 c-6
-16 -24 -21 -24 -7 0 11 11 22 21 22 5 0 6 -7 3 -15z m146 7 c0 -4 -11 -9 -26
-10 -14 -1 -23 2 -20 6 6 10 46 13 46 4z m-203 -52 c7 0 14 -4 18 -10 14 -23
-52 13 -69 38 l-19 27 29 -27 c17 -16 35 -28 41 -28z m103 40 c0 -5 -4 -10
-10 -10 -5 0 -10 5 -10 10 0 6 5 10 10 10 6 0 10 -4 10 -10z m50 -15 c0 -1 -9
-5 -19 -8 -13 -3 -18 -1 -14 9 4 10 33 10 33 -1z m37 -1 c-3 -3 -12 -4 -19 -1
-8 3 -5 6 6 6 11 1 17 -2 13 -5z m-503 -13 c3 -5 -4 -7 -16 -5 -14 3 -10 -2
11 -11 36 -17 67 -13 55 7 -4 7 2 5 13 -5 11 -9 23 -14 28 -10 4 5 5 2 1 -4
-4 -7 -2 -13 4 -13 6 0 8 -4 5 -10 -3 -6 1 -7 9 -4 9 3 16 10 16 16 0 5 5 6
10 3 6 -4 8 -10 5 -15 -9 -14 36 -49 75 -60 19 -6 43 -17 54 -25 17 -13 13
-14 -36 -11 -30 2 -70 11 -89 21 -52 27 -198 115 -203 123 -3 5 8 9 24 10 16
1 31 -2 34 -7z m182 -18 c-7 -7 -26 7 -26 19 0 6 6 6 15 -2 9 -7 13 -15 11
-17z m409 7 c4 -6 11 -8 16 -5 5 4 9 -1 9 -9 0 -21 -38 -16 -43 6 -5 19 8 25
18 8z m122 -16 c0 -7 -5 -12 -11 -11 -5 1 -10 -3 -11 -10 0 -19 -12 -25 -18
-8 -4 8 -2 15 3 15 5 0 7 6 4 14 -4 10 1 14 13 13 11 0 20 -7 20 -13z m-233
-12 c3 -5 -1 -9 -9 -9 -8 0 -12 4 -9 9 3 4 7 8 9 8 2 0 6 -4 9 -8z m161 -12
c3 -5 1 -10 -4 -10 -6 0 -11 5 -11 10 0 6 2 10 4 10 3 0 8 -4 11 -10z m-20
-20 c3 -5 1 -10 -4 -10 -6 0 -11 5 -11 10 0 6 2 10 4 10 3 0 8 -4 11 -10z
m-140 -38 c-3 -3 -11 0 -18 7 -9 10 -8 11 6 5 10 -3 15 -9 12 -12z m905 -28
c0 -2 -12 -4 -27 -4 -21 0 -24 3 -14 9 13 8 41 5 41 -5z m-357 -41 c-7 -2 -19
-2 -25 0 -7 3 -2 5 12 5 14 0 19 -2 13 -5z m-407 -12 c-9 -13 22 -34 55 -38
21 -2 28 1 23 9 -4 7 -3 8 4 4 6 -4 9 -13 5 -21 -3 -8 0 -16 6 -16 20 -3 26
-5 51 -19 14 -7 25 -12 25 -11 0 1 8 -1 17 -4 10 -4 15 -11 12 -17 -4 -6 6 -8
25 -5 17 3 29 2 26 -2 -2 -5 -18 -7 -35 -6 -16 1 -44 2 -61 3 -26 2 -29 5 -24
23 7 20 5 22 -29 16 -20 -3 -36 -2 -36 4 0 5 -5 9 -11 9 -6 0 -33 10 -60 22
-35 15 -46 24 -37 29 7 5 9 9 3 10 -5 0 -1 4 10 9 27 11 37 12 31 1z m190 -32
c3 -5 -4 -9 -14 -9 -11 0 -22 6 -25 14 -4 10 0 12 14 9 11 -3 22 -9 25 -14z
m448 -8 c3 -4 -6 -6 -19 -3 -14 2 -25 6 -25 8 0 8 39 4 44 -5z m-629 -32 c5
-5 -5 -4 -23 2 -17 6 -32 13 -32 16 0 7 43 -8 55 -18z m75 -35 c0 -2 -9 -4
-21 -4 -11 0 -18 4 -14 10 5 8 35 3 35 -6z m272 -1 c15 -3 25 -9 23 -13 -7
-11 -65 6 -79 21 -8 9 -6 10 9 5 11 -4 32 -10 47 -13z"/>
<path d="M21810 6050 c0 -5 5 -10 11 -10 5 0 7 5 4 10 -3 6 -8 10 -11 10 -2 0
-4 -4 -4 -10z"/>
<path d="M21036 5978 c-11 -15 -16 -17 -16 -8 -1 11 -3 10 -11 -3 -13 -23 -12
-24 28 -30 31 -5 32 -4 26 26 -8 42 -8 42 -27 15z"/>
<path d="M21240 5961 c0 -6 5 -13 12 -17 6 -4 8 -3 4 4 -3 5 0 13 6 15 8 3 6
6 -4 6 -10 1 -18 -3 -18 -8z"/>
<path d="M21698 5963 c7 -3 16 -2 19 1 4 3 -2 6 -13 5 -11 0 -14 -3 -6 -6z"/>
<path d="M21580 5941 c0 -6 -6 -11 -12 -10 -35 4 -45 -2 -46 -29 0 -15 -2 -32
-4 -37 -2 -6 -1 -10 2 -10 3 0 17 -7 31 -17 36 -23 52 -8 58 55 1 4 8 7 16 7
8 0 15 4 15 9 0 4 -11 6 -25 3 -14 -2 -25 -8 -25 -13 0 -5 -9 -9 -19 -9 -22 0
-35 26 -19 36 7 4 8 3 4 -4 -4 -7 -3 -12 2 -12 14 0 36 29 28 37 -3 3 -6 1 -6
-6z"/>
<path d="M21300 5920 c-8 -5 -12 -10 -10 -12 40 -25 49 -27 59 -10 10 16 11
15 17 -4 4 -16 12 -19 35 -16 41 6 36 27 -10 40 -46 14 -71 15 -91 2z"/>
<path d="M21658 5923 c6 -2 10 -8 8 -12 -5 -7 4 -7 54 -1 19 2 -28 18 -55 18
-11 0 -14 -2 -7 -5z"/>
<path d="M21864 5905 c2 -7 0 -16 -7 -19 -7 -2 3 -3 20 -2 18 2 30 -1 27 -5
-5 -8 10 -13 29 -10 4 0 7 -11 7 -25 0 -14 -4 -23 -9 -20 -4 3 -6 -5 -4 -18 3
-15 11 -23 21 -22 19 3 29 56 10 56 -9 0 -9 3 2 10 13 9 12 13 -7 29 -12 10
-20 21 -17 24 3 3 -3 3 -15 0 -12 -3 -21 -1 -21 4 0 5 -9 9 -21 10 -14 1 -19
-3 -15 -12z"/>
<path d="M21464 5901 c4 -5 1 -11 -6 -13 -7 -3 -3 -7 9 -10 17 -4 21 -2 20 13
-1 11 -7 19 -15 19 -7 0 -11 -4 -8 -9z"/>
<path d="M20863 5875 c0 -17 24 -20 47 -5 13 8 13 10 -2 10 -9 0 -23 2 -31 5
-8 4 -14 0 -14 -10z"/>
<path d="M21040 5860 c0 -5 5 -10 11 -10 5 0 7 5 4 10 -3 6 -8 10 -11 10 -2 0
-4 -4 -4 -10z"/>
<path d="M20856 5842 c-2 -4 2 -12 9 -19 10 -10 14 -9 18 2 6 14 -19 30 -27
17z"/>
<path d="M21180 5840 c0 -5 7 -7 15 -4 8 4 15 8 15 10 0 2 -7 4 -15 4 -8 0
-15 -4 -15 -10z"/>
<path d="M21421 5795 c-13 -13 -29 -21 -35 -19 -6 2 -17 -5 -24 -16 -11 -17
-10 -20 7 -20 11 0 23 5 26 10 4 6 10 8 14 6 12 -8 51 23 51 39 0 24 -14 23
-39 0z"/>
<path d="M21570 5795 c-11 -13 -6 -15 31 -16 37 0 40 -2 21 -9 -29 -12 -61 -7
-73 11 -5 8 -9 10 -9 6 0 -4 -10 -2 -22 4 -20 11 -21 10 -11 -2 10 -12 7 -15
-14 -17 -31 -2 -44 -13 -25 -19 10 -4 10 -8 1 -19 -9 -11 -9 -14 1 -14 7 0 10
-7 6 -15 -7 -20 9 -19 30 2 9 10 22 18 29 19 7 1 23 5 35 9 20 6 21 5 9 -8 -8
-8 -19 -13 -25 -10 -7 2 -15 0 -18 -5 -5 -8 34 -10 42 -2 3 4 19 7 40 9 15 1
15 3 2 11 -13 9 -7 14 12 11 8 -1 23 48 17 53 -16 13 -69 13 -79 1z"/>
<path d="M21695 5800 c-16 -7 -17 -9 -3 -9 9 -1 20 4 23 9 7 11 7 11 -20 0z"/>
<path d="M21800 5800 c0 -6 7 -10 15 -10 8 0 15 2 15 4 0 2 -7 6 -15 10 -8 3
-15 1 -15 -4z"/>
<path d="M22079 5766 c8 -10 9 -16 1 -21 -6 -3 -8 -11 -4 -16 3 -6 13 -1 21
11 13 19 13 24 2 31 -22 13 -33 11 -20 -5z"/>
<path d="M20910 5745 c-9 -10 -9 -15 -1 -15 6 0 11 6 11 13 0 8 4 7 10 -3 6
-9 10 -10 10 -3 0 19 -17 24 -30 8z"/>
<path d="M20740 5730 c0 -5 7 -10 15 -10 8 0 15 5 15 10 0 6 -7 10 -15 10 -8
0 -15 -4 -15 -10z"/>
<path d="M21240 5725 c0 -8 2 -15 4 -15 2 0 6 7 10 15 3 8 1 15 -4 15 -6 0
-10 -7 -10 -15z"/>
<path d="M20975 5720 c-3 -5 -1 -10 4 -10 6 0 11 5 11 10 0 6 -2 10 -4 10 -3
0 -8 -4 -11 -10z"/>
<path d="M21425 5720 c3 -5 8 -10 11 -10 2 0 4 5 4 10 0 6 -5 10 -11 10 -5 0
-7 -4 -4 -10z"/>
<path d="M20686 5704 c-9 -22 -8 -24 9 -24 8 0 15 9 15 20 0 24 -15 27 -24 4z"/>
<path d="M20917 5699 c-9 -5 -22 -7 -27 -4 -5 3 -7 -1 -4 -9 6 -16 -36 -33
-55 -22 -6 4 -18 -2 -28 -13 -9 -11 -20 -18 -25 -15 -4 3 -8 0 -8 -5 0 -6 8
-11 18 -11 24 -1 50 -22 45 -37 -3 -7 2 -13 11 -13 10 0 16 9 16 24 0 31 28
43 32 14 4 -31 26 -34 26 -3 0 14 -5 25 -11 25 -7 0 -7 4 1 12 7 7 12 20 12
31 0 10 3 16 8 14 4 -3 13 1 20 9 10 11 10 14 0 14 -7 0 -21 -5 -31 -11z m-57
-69 c-8 -5 -19 -10 -25 -10 -5 0 -3 5 5 10 8 5 20 10 25 10 6 0 3 -5 -5 -10z"/>
<path d="M22067 5699 c-10 -6 -15 -14 -12 -19 6 -10 45 -1 45 11 0 14 -15 18
-33 8z"/>
<path d="M21070 5691 c0 -6 4 -13 10 -16 6 -3 7 1 4 9 -7 18 -14 21 -14 7z"/>
<path d="M21135 5690 c4 -6 11 -8 16 -5 14 9 11 15 -7 15 -8 0 -12 -5 -9 -10z"/>
<path d="M21427 5685 c3 -8 9 -12 14 -9 12 7 11 11 -5 17 -10 4 -13 1 -9 -8z"/>
<path d="M20680 5655 c0 -8 5 -15 10 -15 6 0 10 4 10 10 0 5 8 7 18 4 14 -5
15 -4 2 5 -21 15 -40 13 -40 -4z"/>
<path d="M20965 5650 c3 -5 2 -10 -3 -10 -6 0 -5 -10 1 -25 14 -30 39 -29 43
3 3 14 -1 22 -11 22 -8 0 -15 5 -15 10 0 6 -5 10 -11 10 -5 0 -7 -4 -4 -10z"/>
<path d="M21020 5645 c7 -8 9 -19 5 -25 -5 -8 1 -11 16 -8 33 4 30 30 -4 39
-23 6 -26 5 -17 -6z"/>
<path d="M20751 5578 c-5 -13 -6 -28 -4 -35 3 -6 -4 -24 -14 -39 -10 -16 -13
-25 -7 -21 7 4 15 0 18 -9 4 -9 9 -14 13 -11 3 4 0 14 -7 23 -12 13 -11 17 0
24 9 6 17 4 22 -3 5 -8 11 -6 22 8 12 17 12 21 -5 33 -11 7 -17 18 -14 23 4 5
1 9 -5 9 -6 0 -8 5 -5 10 3 6 4 10 0 10 -3 0 -9 -10 -14 -22z"/>
<path d="M20515 5580 c-3 -5 -2 -10 4 -10 5 0 13 5 16 10 3 6 2 10 -4 10 -5 0
-13 -4 -16 -10z"/>
<path d="M20676 5553 c-6 -14 -5 -15 5 -6 7 7 10 15 7 18 -3 3 -9 -2 -12 -12z"/>
<path d="M21076 5518 c4 -13 12 -27 18 -31 6 -5 0 -6 -14 -3 -14 3 -28 6 -31
6 -4 0 -9 10 -13 23 -6 22 -6 21 -21 -7 -8 -15 -15 -36 -14 -45 0 -11 3 -9 9
7 11 25 11 25 42 13 13 -5 27 -9 33 -9 5 0 12 -8 15 -18 5 -14 9 -11 18 14 6
19 7 30 2 27 -6 -4 -10 -1 -10 5 0 6 -4 9 -9 6 -5 -3 -11 1 -14 8 -3 8 -1 17
6 20 7 2 4 5 -6 5 -15 1 -17 -4 -11 -21z"/>
<path d="M21284 5513 c1 -8 10 -19 19 -25 24 -13 22 14 -2 29 -16 10 -19 9
-17 -4z"/>
<path d="M20655 5491 c-3 -6 -17 -11 -31 -11 -14 0 -22 -4 -19 -10 9 -15 41
-12 55 5 7 9 10 18 7 21 -3 3 -8 1 -12 -5z"/>
<path d="M20683 5481 c-3 -11 -14 -23 -24 -26 -11 -4 -17 -11 -13 -16 3 -5 9
-7 14 -4 4 3 11 -1 13 -7 3 -8 6 -9 6 -2 1 6 12 9 26 6 24 -4 24 -3 14 27 -14
39 -29 49 -36 22z"/>
<path d="M20570 5460 c0 -5 5 -10 10 -10 6 0 10 5 10 10 0 6 -4 10 -10 10 -5
0 -10 -4 -10 -10z"/>
<path d="M20606 5435 c-3 -8 -1 -15 3 -15 5 0 11 7 15 15 3 8 1 15 -3 15 -5 0
-11 -7 -15 -15z"/>
<path d="M20997 5433 c-4 -3 -7 -11 -7 -17 0 -6 5 -5 12 2 6 6 9 14 7 17 -3 3
-9 2 -12 -2z"/>
<path d="M21085 5420 c-3 -5 1 -10 10 -10 9 0 13 5 10 10 -3 6 -8 10 -10 10
-2 0 -7 -4 -10 -10z"/>
<path d="M20988 5356 c-9 -26 -11 -46 -7 -46 5 0 9 7 9 16 0 8 5 12 10 9 8 -5
7 -11 0 -20 -7 -8 -8 -20 -4 -27 5 -10 4 -11 -7 0 -18 17 -26 15 -32 -8 -7
-29 -25 -25 -30 8 -4 26 -4 26 -12 5 -4 -13 -13 -23 -20 -23 -7 0 -15 -7 -18
-14 -4 -10 -1 -13 7 -10 8 3 17 1 21 -5 4 -7 17 -6 40 3 29 13 33 13 28 0 -3
-8 -9 -12 -13 -9 -4 3 -10 -4 -13 -15 -5 -20 7 -28 17 -11 7 11 46 2 46 -10 0
-5 -4 -9 -9 -9 -6 0 -8 -9 -6 -20 2 -12 -2 -20 -10 -20 -33 0 -19 -15 16 -18
21 -1 39 2 39 7 0 6 -6 8 -14 5 -9 -3 -13 3 -12 23 1 20 9 31 27 40 35 17 57
43 37 43 -8 0 -18 -3 -21 -6 -9 -10 -68 -13 -62 -4 6 10 64 23 93 21 22 -2 31
14 11 21 -6 2 7 17 30 32 37 26 46 46 20 46 -6 0 -7 -5 -3 -12 5 -7 2 -9 -8
-5 -9 3 -19 3 -22 -1 -9 -9 -96 -12 -96 -4 0 4 7 18 16 30 8 12 11 22 5 22 -5
0 -16 2 -24 6 -10 3 -19 -8 -29 -40z"/>
<path d="M21083 5393 c-17 -6 -16 -30 1 -36 8 -3 18 4 24 17 10 23 3 28 -25
19z"/>
<path d="M21400 5395 c0 -8 29 -12 39 -5 9 5 4 8 -13 8 -14 0 -26 -2 -26 -3z"/>
<path d="M20705 5364 c-16 -12 -17 -17 -5 -39 17 -33 32 -32 53 4 16 27 16 28
-6 38 -17 8 -28 7 -42 -3z"/>
<path d="M20941 5304 c0 -11 3 -14 6 -6 3 7 2 16 -1 19 -3 4 -6 -2 -5 -13z"/>
<path d="M21134 5305 c-17 -13 -17 -14 -2 -15 14 0 13 -4 -7 -26 -28 -30 -33
-49 -11 -41 9 4 17 -2 21 -14 7 -23 45 -26 45 -4 0 9 -8 28 -17 42 -16 23 -16
26 -2 21 10 -4 16 -1 16 8 0 8 -5 14 -10 14 -5 0 -7 7 -3 15 7 19 -5 19 -30 0z"/>
<path d="M20721 5272 c-13 -25 -14 -42 -2 -42 8 0 23 52 16 58 -2 2 -8 -5 -14
-16z"/>
<path d="M21325 5260 c10 -11 20 -20 23 -20 3 0 -3 9 -13 20 -10 11 -20 20
-23 20 -3 0 3 -9 13 -20z"/>
<path d="M22420 5240 c0 -5 5 -10 11 -10 5 0 7 5 4 10 -3 6 -8 10 -11 10 -2 0
-4 -4 -4 -10z"/>
<path d="M22390 5230 c0 -5 5 -10 11 -10 5 0 7 5 4 10 -3 6 -8 10 -11 10 -2 0
-4 -4 -4 -10z"/>
<path d="M21220 5223 c0 -7 7 -18 15 -27 18 -18 19 -36 3 -36 -9 0 -8 -4 2
-10 38 -24 40 2 5 50 -14 19 -25 29 -25 23z"/>
<path d="M21357 5211 c-4 -17 -3 -21 5 -13 5 5 8 16 6 23 -3 8 -7 3 -11 -10z"/>
<path d="M21494 5185 c7 -37 16 -48 30 -36 7 6 17 7 22 3 4 -4 3 0 -4 9 -6 9
-9 19 -5 22 3 4 -4 7 -16 7 -12 0 -19 4 -16 10 3 6 1 10 -5 10 -6 0 -8 -11 -6
-25z"/>
<path d="M21095 5180 c27 -12 35 -12 35 0 0 6 -12 10 -27 9 -25 0 -26 -1 -8
-9z"/>
<path d="M21070 5160 c13 -8 13 -10 -2 -10 -12 0 -15 -5 -11 -15 3 -10 0 -15
-8 -13 -8 2 -15 -7 -17 -19 -4 -29 -17 -29 -36 -1 l-16 22 0 -22 c0 -12 -6
-22 -12 -23 -7 0 -3 -4 10 -10 15 -6 30 -5 43 1 10 6 19 7 19 3 0 -4 5 -2 11
4 6 6 18 9 27 6 12 -5 14 -1 10 21 -4 21 -2 26 9 22 23 -9 34 3 20 24 -7 12
-23 20 -37 20 -20 0 -22 -2 -10 -10z"/>
<path d="M21350 5166 c0 -2 7 -7 16 -10 8 -3 12 -2 9 4 -6 10 -25 14 -25 6z"/>
<path d="M20880 5135 c0 -9 4 -14 9 -10 5 3 12 1 15 -4 3 -5 20 -14 36 -20 18
-6 28 -6 25 -1 -4 6 -13 10 -21 10 -9 0 -12 5 -8 13 4 6 3 9 -1 4 -5 -4 -19 0
-32 8 -21 14 -23 14 -23 0z"/>
<path d="M21286 5109 c-15 -25 -16 -33 -6 -42 10 -9 11 -9 6 0 -4 7 1 24 10
38 9 14 15 28 12 30 -2 2 -12 -9 -22 -26z"/>
<path d="M20521 5103 c0 -12 -5 -25 -11 -28 -5 -3 -10 -14 -10 -23 0 -11 6 -6
15 12 9 17 14 37 12 45 -3 10 -5 8 -6 -6z"/>
<path d="M22245 5089 c-10 -15 28 -28 42 -14 7 8 13 16 13 18 0 8 -50 5 -55
-4z"/>
<path d="M21440 5080 c0 -5 5 -10 10 -10 6 0 10 5 10 10 0 6 -4 10 -10 10 -5
0 -10 -4 -10 -10z"/>
<path d="M21085 5060 c-3 -5 -1 -10 4 -10 6 0 11 5 11 10 0 6 -2 10 -4 10 -3
0 -8 -4 -11 -10z"/>
<path d="M21610 5060 c0 -5 7 -10 15 -10 8 0 15 5 15 10 0 6 -7 10 -15 10 -8
0 -15 -4 -15 -10z"/>
<path d="M22420 5046 c0 -9 5 -16 10 -16 6 0 10 4 10 9 0 6 -4 13 -10 16 -5 3
-10 -1 -10 -9z"/>
<path d="M21640 5040 c-9 -6 -10 -10 -3 -10 6 0 15 5 18 10 8 12 4 12 -15 0z"/>
<path d="M20503 5007 c-2 -37 7 -68 18 -62 7 5 6 11 -1 20 -7 8 -9 23 -5 34 3
10 2 22 -2 24 -5 3 -9 -4 -10 -16z"/>
<path d="M20918 4973 c6 -2 18 -2 25 0 6 3 1 5 -13 5 -14 0 -19 -2 -12 -5z"/>
<path d="M21347 4953 c-3 -3 -3 -11 0 -18 5 -14 33 -9 33 5 0 10 -26 20 -33
13z"/>
<path d="M21224 4899 c-32 -21 -90 -27 -78 -8 5 8 -1 10 -19 7 -15 -3 -28 -1
-30 5 -2 6 -13 4 -28 -5 -13 -9 -36 -18 -50 -22 -15 -3 -29 -13 -33 -21 -4
-13 -2 -14 14 -5 11 6 20 8 20 5 0 -3 16 2 37 10 20 8 38 13 40 11 2 -2 -5
-21 -16 -42 -12 -21 -18 -47 -15 -56 4 -14 -1 -18 -23 -19 -27 0 -78 -17 -58
-18 6 -1 3 -6 -5 -11 -12 -8 -10 -10 10 -10 14 0 32 -5 40 -11 12 -8 7 -9 -17
-6 -39 4 -44 -8 -8 -17 30 -8 24 -26 -8 -26 l-22 -1 23 -19 c14 -12 19 -21 11
-25 -7 -5 -3 -15 12 -31 17 -18 33 -24 66 -24 24 0 43 5 43 10 0 6 -4 10 -9
10 -5 0 -5 19 0 43 4 23 10 59 14 80 3 20 11 37 17 37 6 0 8 -10 4 -25 -5 -20
-3 -25 11 -25 14 0 15 -2 5 -9 -11 -7 -8 -17 14 -52 16 -24 29 -45 29 -46 1
-2 10 -4 21 -6 53 -10 99 -44 59 -44 -8 0 -11 5 -8 11 4 6 -1 5 -11 -3 -15
-13 -16 -15 -2 -23 9 -5 16 -17 16 -27 0 -11 8 -22 18 -26 14 -5 15 -4 5 6
-15 15 -17 33 -3 24 6 -4 10 8 10 29 0 27 -5 36 -22 42 -13 3 -31 13 -40 22
-10 8 -18 11 -18 6 0 -12 -45 37 -53 59 -3 9 -2 17 3 17 5 0 11 -8 13 -17 4
-16 5 -16 6 -1 0 9 -3 20 -9 23 -5 3 -10 15 -10 25 0 10 -6 21 -12 23 -8 3 -6
6 5 6 10 1 17 -6 17 -18 0 -11 5 -23 11 -27 9 -5 10 1 5 22 -7 27 -6 27 18 -9
14 -21 26 -51 26 -68 0 -18 4 -28 10 -24 6 4 8 11 5 16 -4 5 -2 9 3 9 5 0 9
14 10 30 0 17 -3 28 -7 26 -4 -3 -8 10 -9 27 -2 38 -5 53 -21 92 -10 24 -10
31 1 40 15 12 22 61 10 69 -4 3 -21 -4 -38 -15z m-14 -148 c0 -4 -6 -8 -13 -8
-8 0 -14 6 -14 13 0 7 6 10 14 7 7 -3 13 -8 13 -12z"/>
<path d="M21368 4903 c-9 -12 -9 -15 0 -9 8 5 12 0 12 -14 0 -12 -4 -18 -10
-15 -5 3 -10 -1 -10 -10 0 -14 6 -16 27 -10 25 6 43 21 43 35 -1 3 -11 13 -24
22 -22 16 -25 16 -38 1z"/>
<path d="M20938 4893 c7 -3 16 -2 19 1 4 3 -2 6 -13 5 -11 0 -14 -3 -6 -6z"/>
<path d="M20859 4871 c10 -7 8 -12 -9 -24 -20 -14 -21 -16 -3 -21 10 -3 6 -4
-10 -2 -31 4 -47 -11 -22 -20 20 -8 96 16 89 27 -2 4 -12 6 -22 3 -14 -5 -14
-4 -2 4 8 6 18 8 22 6 4 -3 8 0 8 5 0 6 8 11 17 11 28 0 10 7 -37 14 -27 4
-40 3 -31 -3z"/>
<path d="M20730 4858 c0 -4 -6 -8 -14 -8 -8 0 -17 -7 -20 -16 -9 -24 -7 -31 4
-14 6 10 10 11 10 3 0 -10 6 -10 25 -1 13 6 22 15 18 20 -3 6 4 5 15 -1 25
-14 43 -14 22 -1 -10 6 -11 10 -2 10 6 0 12 5 12 10 0 6 -16 10 -35 8 -19 -1
-35 -6 -35 -10z"/>
<path d="M22356 4845 c-17 -17 -13 -35 7 -35 8 0 8 3 -2 9 -9 6 -10 11 -2 15
6 4 14 0 18 -9 3 -10 1 -20 -4 -24 -7 -4 -5 -11 5 -20 13 -12 14 -12 10 0 -3
8 1 21 8 30 12 14 12 18 -5 33 -17 16 -20 16 -35 1z"/>
<path d="M21398 4827 c-11 -9 -14 -18 -7 -28 7 -12 9 -11 9 3 0 9 8 22 18 27
9 6 13 10 7 10 -5 0 -18 -5 -27 -12z"/>
<path d="M20432 4760 c0 -14 2 -19 5 -12 2 6 2 18 0 25 -3 6 -5 1 -5 -13z"/>
<path d="M21320 4755 c0 -8 2 -15 4 -15 2 0 6 7 10 15 3 8 1 15 -4 15 -6 0
-10 -7 -10 -15z"/>
<path d="M20887 4740 c3 -11 9 -17 15 -14 5 3 4 12 -3 20 -16 19 -18 18 -12
-6z"/>
<path d="M21410 4750 c0 -5 5 -10 11 -10 5 0 7 5 4 10 -3 6 -8 10 -11 10 -2 0
-4 -4 -4 -10z"/>
<path d="M21420 4720 c0 -6 7 -10 15 -10 8 0 15 2 15 4 0 2 -7 6 -15 10 -8 3
-15 1 -15 -4z"/>
<path d="M22240 4710 c0 -5 7 -10 16 -10 8 0 12 5 9 10 -3 6 -10 10 -16 10 -5
0 -9 -4 -9 -10z"/>
<path d="M22286 4712 c-3 -6 -1 -14 5 -17 15 -10 25 3 12 16 -7 7 -13 7 -17 1z"/>
<path d="M20848 4703 c7 -3 16 -2 19 1 4 3 -2 6 -13 5 -11 0 -14 -3 -6 -6z"/>
<path d="M21810 4700 c0 -5 5 -10 11 -10 5 0 7 5 4 10 -3 6 -8 10 -11 10 -2 0
-4 -4 -4 -10z"/>
<path d="M20816 4687 c3 -10 9 -15 12 -12 3 3 0 11 -7 18 -10 9 -11 8 -5 -6z"/>
<path d="M22343 4693 c9 -2 23 -2 30 0 6 3 -1 5 -18 5 -16 0 -22 -2 -12 -5z"/>
<path d="M20577 4660 c-3 -13 -1 -18 6 -13 6 4 8 0 4 -9 -4 -11 -1 -15 9 -14
17 3 17 14 -1 39 -12 17 -13 17 -18 -3z"/>
<path d="M22747 4673 c-3 -5 -2 -15 2 -22 7 -10 10 -10 16 -1 4 6 3 16 -3 22
-5 5 -12 6 -15 1z"/>
<path d="M21223 4656 c5 -16 27 -19 27 -3 0 7 -7 14 -15 14 -9 0 -14 -5 -12
-11z"/>
<path d="M20246 4651 c-3 -5 1 -11 9 -15 8 -3 15 -1 15 4 0 13 -18 22 -24 11z"/>
<path d="M21477 4636 c-3 -8 -2 -18 4 -22 16 -9 22 2 11 21 -8 15 -10 16 -15
1z"/>
<path d="M20420 4630 c-13 -9 -13 -10 0 -11 10 0 8 -3 -5 -9 -11 -5 -15 -9 -9
-9 7 -1 15 -13 18 -27 7 -25 8 -26 21 -8 17 23 19 34 4 34 -5 0 -7 -4 -4 -10
3 -5 1 -10 -4 -10 -14 0 -14 13 -1 26 14 14 -3 35 -20 24z"/>
<path d="M21437 4623 c3 -7 9 -13 14 -13 5 0 9 6 9 13 0 8 -6 14 -14 14 -8 0
-12 -6 -9 -14z"/>
<path d="M21587 4624 c-4 -4 -7 -17 -7 -28 1 -19 1 -20 11 -3 11 19 8 43 -4
31z"/>
<path d="M20266 4603 c-6 -14 -5 -15 5 -6 7 7 10 15 7 18 -3 3 -9 -2 -12 -12z"/>
<path d="M21140 4605 c0 -8 7 -15 16 -15 14 0 14 3 4 15 -7 8 -14 15 -16 15
-2 0 -4 -7 -4 -15z"/>
<path d="M20290 4606 c0 -2 7 -9 15 -16 9 -7 15 -8 15 -2 0 5 -7 12 -15 16 -8
3 -15 4 -15 2z"/>
<path d="M20633 4596 c10 -14 9 -28 -3 -21 -5 3 -10 2 -10 -4 0 -13 45 -61 57
-61 6 0 16 -7 23 -15 7 -8 26 -15 42 -15 l30 0 -40 40 c-22 22 -44 40 -50 40
-6 0 -21 10 -34 23 -13 12 -20 18 -15 13z"/>
<path d="M21482 4573 l20 -22 -21 6 c-11 3 -21 10 -21 16 0 6 -2 8 -5 5 -15
-15 9 -35 45 -36 l40 -2 -20 20 c-12 12 -18 25 -15 29 2 5 -6 8 -19 7 l-25 -1
21 -22z"/>
<path d="M20373 4575 c0 -6 11 -12 23 -13 16 -1 22 2 18 12 -6 17 -41 17 -41
1z"/>
<path d="M21610 4583 c0 -4 5 -15 10 -23 8 -13 10 -13 10 2 0 9 -4 20 -10 23
-5 3 -10 3 -10 -2z"/>
<path d="M21682 4560 c0 -14 2 -19 5 -12 2 6 2 18 0 25 -3 6 -5 1 -5 -13z"/>
<path d="M21860 4564 c0 -19 -30 -30 -40 -15 -5 9 -9 8 -14 -5 -4 -10 -4 -15
-1 -12 4 4 18 3 32 -3 16 -6 22 -6 18 1 -3 6 3 10 13 10 26 0 36 35 11 37 -11
1 -19 -5 -19 -13z"/>
<path d="M20615 4530 c3 -5 8 -10 11 -10 2 0 4 5 4 10 0 6 -5 10 -11 10 -5 0
-7 -4 -4 -10z"/>
<path d="M21702 4495 c-1 -19 2 -35 7 -35 9 0 7 57 -1 66 -3 2 -5 -12 -6 -31z"/>
<path d="M20985 4510 c-18 -8 -18 -9 -2 -9 10 -1 20 -7 23 -15 3 -8 12 -17 19
-20 9 -3 12 0 8 10 -3 7 -9 14 -14 14 -5 0 -9 5 -9 12 0 9 3 9 12 0 16 -16 28
-15 28 3 0 17 -32 19 -65 5z"/>
<path d="M21570 4510 c0 -13 11 -13 30 0 12 8 11 10 -7 10 -13 0 -23 -4 -23
-10z"/>
<path d="M20814 4481 c3 -5 17 -11 30 -13 17 -4 23 -1 19 9 -3 7 -16 13 -30
13 -13 0 -22 -4 -19 -9z"/>
<path d="M21060 4486 c0 -2 7 -9 15 -16 13 -11 14 -10 9 4 -5 14 -24 23 -24
12z"/>
<path d="M22335 4480 c-3 -5 -1 -10 4 -10 6 0 11 5 11 10 0 6 -2 10 -4 10 -3
0 -8 -4 -11 -10z"/>
<path d="M20635 4440 c3 -5 10 -10 16 -10 5 0 9 5 9 10 0 6 -7 10 -16 10 -8 0
-12 -4 -9 -10z"/>
<path d="M20845 4435 c17 -7 33 -11 38 -8 4 2 7 -1 7 -6 0 -6 6 -11 13 -11 6
1 1 10 -12 20 -13 11 -35 20 -50 19 l-26 -1 30 -13z"/>
<path d="M22268 4438 c-29 -10 -34 -23 -20 -46 9 -14 42 -6 42 10 0 6 -8 5
-17 -3 -10 -7 -5 1 11 19 31 34 29 37 -16 20z"/>
<path d="M20928 4423 c7 -3 16 -2 19 1 4 3 -2 6 -13 5 -11 0 -14 -3 -6 -6z"/>
<path d="M22146 4395 c-25 -19 -9 -19 24 0 14 8 19 14 10 14 -8 0 -24 -6 -34
-14z"/>
<path d="M21080 4396 c0 -2 7 -6 15 -10 8 -3 15 -1 15 4 0 6 -7 10 -15 10 -8
0 -15 -2 -15 -4z"/>
<path d="M21164 4359 c-3 -5 0 -9 5 -9 6 0 11 -6 11 -14 0 -8 13 -16 30 -18
17 -3 30 -1 30 4 0 4 5 8 11 8 6 0 7 -5 2 -12 -4 -7 -8 -19 -10 -27 -1 -8 -9
-18 -18 -23 -18 -10 -11 -28 11 -28 8 0 14 7 14 15 0 8 5 15 11 15 5 0 8 4 5
8 -2 4 -1 14 5 22 7 12 9 12 9 -3 0 -10 4 -16 10 -12 10 6 -7 55 -25 67 -16
12 -27 9 -19 -4 6 -10 4 -10 -7 -2 -19 15 -68 23 -75 13z"/>
<path d="M21410 4345 c-7 -8 -11 -15 -9 -16 31 -6 39 -6 39 2 0 5 -6 9 -12 9
-9 0 -8 4 2 10 8 5 10 10 4 10 -6 0 -17 -7 -24 -15z"/>
<path d="M21037 4303 c-10 -16 11 -39 23 -27 8 8 7 14 -4 23 -8 7 -17 8 -19 4z"/>
<path d="M21849 4301 c-12 -4 -14 -12 -8 -28 8 -21 21 -33 17 -15 0 4 2 15 7
25 9 22 5 26 -16 18z"/>
<path d="M21430 4286 c0 -8 7 -21 15 -30 8 -8 15 -20 15 -27 0 -9 4 -9 15 1
15 12 16 35 2 58 -11 17 -47 15 -47 -2z"/>
<path d="M20925 4280 c-4 -7 3 -8 22 -4 38 9 42 14 10 14 -14 0 -29 -5 -32
-10z"/>
<path d="M21112 4255 c1 -10 13 -24 25 -32 20 -13 21 -13 16 7 -7 27 -47 50
-41 25z"/>
<path d="M21326 4223 c-4 -4 -23 -6 -43 -5 -50 4 -59 -16 -20 -45 36 -26 53
-29 60 -9 3 8 19 17 36 21 42 9 44 45 3 45 -16 0 -32 -3 -36 -7z"/>
<path d="M20894 4203 c11 -11 45 -13 51 -3 4 6 -7 10 -26 10 -18 0 -29 -3 -25
-7z"/>
<path d="M21055 4200 c3 -5 8 -10 11 -10 2 0 4 5 4 10 0 6 -5 10 -11 10 -5 0
-7 -4 -4 -10z"/>
<path d="M21167 4187 c-3 -8 1 -14 9 -14 8 0 14 6 14 14 0 7 -4 13 -9 13 -5 0
-11 -6 -14 -13z"/>
<path d="M21509 4191 c7 -5 17 -15 22 -22 6 -10 9 -8 9 9 0 16 -6 22 -22 22
-17 0 -19 -3 -9 -9z"/>
<path d="M21470 4176 c0 -8 5 -18 10 -21 6 -3 10 3 10 14 0 12 -4 21 -10 21
-5 0 -10 -6 -10 -14z"/>
<path d="M21900 4182 c0 -5 7 -9 15 -9 8 0 15 4 15 9 0 4 -7 8 -15 8 -8 0 -15
-4 -15 -8z"/>
<path d="M21227 4013 c-4 -3 -7 -11 -7 -17 0 -6 5 -5 12 2 6 6 9 14 7 17 -3 3
-9 2 -12 -2z"/>
<path d="M20504 5739 c-8 -13 24 -18 35 -6 7 9 5 13 -10 13 -11 0 -22 -3 -25
-7z"/>
<path d="M23006 4767 c3 -10 9 -15 12 -12 3 3 0 11 -7 18 -10 9 -11 8 -5 -6z"/>
<path d="M20130 3912 c0 -12 19 -26 26 -19 2 2 -2 10 -11 17 -9 8 -15 8 -15 2z"/>
<path d="M20182 3840 c-10 -17 -10 -21 3 -27 25 -9 42 14 24 32 -13 13 -16 12
-27 -5z"/>
<path d="M20000 3802 c0 -12 7 -25 15 -29 27 -10 30 6 7 30 l-22 21 0 -22z"/>
<path d="M20105 3736 c20 -30 25 -32 25 -11 0 8 -9 19 -21 25 -20 11 -20 11
-4 -14z"/>
<path d="M23277 4014 c-9 -10 4 -34 19 -34 16 0 16 2 8 24 -6 17 -16 20 -27
10z"/>
<path d="M22410 3841 c0 -5 6 -20 13 -34 14 -27 42 -23 32 4 -6 17 -45 43 -45
30z"/>
<path d="M22223 3833 c-18 -6 -16 -23 1 -23 17 0 30 16 19 23 -5 2 -14 2 -20
0z"/>
<path d="M22496 3823 c-6 -14 -5 -15 5 -6 7 7 10 15 7 18 -3 3 -9 -2 -12 -12z"/>
<path d="M23020 3730 c-23 -20 -29 -60 -7 -41 8 6 18 7 22 3 5 -4 5 -1 1 6 -4
7 -1 12 7 12 8 0 17 8 19 18 7 24 -16 24 -42 2z"/>
<path d="M22976 3705 c-9 -26 -7 -32 5 -12 6 10 9 21 6 23 -2 3 -7 -2 -11 -11z"/>
<path d="M22975 3640 c3 -5 8 -10 11 -10 2 0 4 5 4 10 0 6 -5 10 -11 10 -5 0
-7 -4 -4 -10z"/>
<path d="M22892 3623 c-9 -4 -10 -8 -2 -18 8 -9 8 -15 0 -20 -5 -3 -10 -11
-10 -16 0 -6 5 -7 10 -4 15 9 12 -16 -3 -34 -13 -15 -37 -88 -37 -107 1 -5 9
7 20 26 11 21 19 28 20 18 0 -9 -4 -20 -10 -23 -5 -3 -9 -17 -8 -31 l2 -25 18
23 c16 22 29 61 33 100 1 9 7 23 14 32 7 8 9 21 5 28 -5 10 -4 10 6 1 11 -10
11 -15 -1 -30 -12 -14 -9 -14 13 2 28 20 36 35 19 35 -5 0 -12 11 -15 25 -7
26 -31 34 -39 13 -4 -10 -6 -10 -6 0 -1 13 -7 14 -29 5z"/>
<path d="M23176 3605 c-9 -26 -7 -32 5 -12 6 10 9 21 6 23 -2 3 -7 -2 -11 -11z"/>
<path d="M22860 3600 c0 -6 7 -10 15 -10 8 0 15 2 15 4 0 2 -7 6 -15 10 -8 3
-15 1 -15 -4z"/>
<path d="M23037 3593 c-3 -5 1 -14 9 -21 12 -11 14 -9 14 8 0 20 -14 27 -23
13z"/>
<path d="M23003 3528 c-1 -11 -7 -24 -14 -28 -8 -6 -8 -9 2 -13 10 -4 8 -6 -4
-6 -10 -1 -15 -6 -12 -11 10 -16 59 28 62 56 3 18 -1 24 -15 24 -11 0 -18 -8
-19 -22z m27 -22 c0 -2 -7 -7 -16 -10 -8 -3 -12 -2 -9 4 6 10 25 14 25 6z"/>
<path d="M22946 3464 c-9 -23 -7 -56 2 -50 8 5 15 66 7 66 -1 0 -6 -7 -9 -16z"/>
<path d="M22806 3437 c-5 -15 -6 -31 -2 -34 11 -11 18 5 14 34 l-4 28 -8 -28z"/>
<path d="M23220 3431 c0 -6 4 -13 10 -16 6 -3 7 1 4 9 -7 18 -14 21 -14 7z"/>
<path d="M22837 3393 c-4 -3 -7 -13 -7 -22 1 -13 3 -13 11 2 11 19 8 33 -4 20z"/>
<path d="M23237 3389 c7 -7 15 -10 18 -7 3 3 -2 9 -12 12 -14 6 -15 5 -6 -5z"/>
<path d="M22776 3293 c-6 -14 -5 -15 5 -6 7 7 10 15 7 18 -3 3 -9 -2 -12 -12z"/>
<path d="M22270 3141 c0 -5 7 -12 16 -15 14 -5 15 -4 4 9 -14 17 -20 19 -20 6z"/>
<path d="M22470 3102 c0 -10 22 -32 32 -32 12 0 -2 28 -18 34 -8 3 -14 2 -14
-2z"/>
<path d="M22326 3088 c3 -5 10 -6 15 -3 13 9 11 12 -6 12 -8 0 -12 -4 -9 -9z"/>
<path d="M22785 3090 c-3 -5 -2 -17 3 -26 8 -14 10 -12 10 9 0 29 -3 33 -13
17z"/>
<path d="M22269 3068 c7 -10 11 -19 7 -19 -3 -1 -10 -2 -16 -3 -16 -2 -12 -20
6 -22 9 -1 13 0 10 3 -3 4 -1 12 4 18 7 9 5 17 -7 26 -16 13 -17 12 -4 -3z"/>
<path d="M22350 3070 c0 -5 7 -10 15 -14 8 -3 15 0 15 6 0 6 6 5 17 -3 14 -12
16 -12 11 1 -5 15 -58 24 -58 10z"/>
<path d="M22325 3061 c-3 -5 -1 -12 5 -16 5 -3 10 1 10 9 0 18 -6 21 -15 7z"/>
<path d="M22610 3061 c0 -6 9 -15 20 -21 13 -7 20 -7 20 -1 0 6 -9 15 -20 21
-13 7 -20 7 -20 1z"/>
<path d="M21840 3053 c8 -4 22 -15 32 -25 9 -10 19 -15 22 -10 7 11 -37 42
-56 41 -9 0 -8 -3 2 -6z"/>
<path d="M22760 3024 c0 -8 5 -12 10 -9 6 4 8 11 5 16 -9 14 -15 11 -15 -7z"/>
<path d="M21810 3021 c0 -5 9 -7 20 -4 11 3 20 7 20 9 0 2 -9 4 -20 4 -11 0
-20 -4 -20 -9z"/>
<path d="M21887 2932 c4 -10 8 -11 13 -2 4 6 10 11 14 10 4 -1 12 1 19 4 6 2
-2 4 -19 3 -23 -1 -30 -5 -27 -15z"/>
<path d="M22320 2943 c-8 -3 -22 -7 -30 -10 -8 -4 -18 -6 -21 -5 -3 0 -20 -12
-38 -29 -30 -27 -44 -33 -63 -30 -5 0 -8 -3 -8 -9 0 -16 23 -12 76 15 27 14
57 25 67 25 9 0 17 5 17 10 0 6 6 10 14 10 8 0 17 4 20 9 7 11 -14 20 -34 14z"/>
<path d="M21916 2892 c-3 -4 4 -9 15 -9 23 -2 25 3 4 10 -8 4 -16 3 -19 -1z"/>
<path d="M22335 2870 c3 -5 10 -10 16 -10 5 0 9 5 9 10 0 6 -7 10 -16 10 -8 0
-12 -4 -9 -10z"/>
<path d="M21756 2862 c-2 -4 -1 -14 5 -22 7 -12 9 -10 9 8 0 23 -5 28 -14 14z"/>
<path d="M21793 2863 c-18 -7 -16 -23 3 -23 9 0 12 5 8 12 -5 8 -2 9 10 5 10
-4 20 -7 22 -7 3 0 2 -4 -1 -10 -10 -16 11 -12 25 5 11 13 10 14 -3 10 -8 -4
-18 -2 -22 4 -6 11 -21 13 -42 4z"/>
<path d="M22027 2856 c-12 -5 -31 -8 -42 -7 -17 2 -18 0 -5 -9 13 -10 12 -11
-3 -6 -10 3 -21 6 -23 6 -3 0 -3 4 0 8 3 5 -1 9 -9 9 -19 0 -19 -5 0 -24 8 -8
12 -20 8 -26 -4 -7 2 -5 12 3 15 12 17 12 10 1 -6 -11 -4 -13 8 -8 9 3 19 2
22 -3 4 -6 12 -10 18 -10 8 0 7 3 -2 9 -9 6 -2 10 24 13 21 2 44 -1 53 -9 9
-7 12 -13 6 -13 -6 0 -9 -10 -7 -23 4 -20 9 -23 35 -19 21 3 29 1 24 -7 -4 -6
0 -11 11 -12 31 -1 67 -7 88 -13 76 -23 132 -36 150 -36 25 1 -60 35 -110 44
-19 4 -33 11 -30 17 4 5 -1 9 -10 9 -9 0 -13 5 -10 10 4 6 -10 10 -35 10 -22
0 -49 5 -59 12 -19 11 -19 13 6 34 25 21 25 22 5 28 -12 4 -30 2 -41 -3 -31
-17 -46 -14 -28 7 14 16 14 17 -14 17 -17 0 -40 -4 -52 -9z"/>
<path d="M22286 2851 c-4 -5 3 -7 14 -4 23 6 26 13 6 13 -8 0 -17 -4 -20 -9z"/>
<path d="M22220 2800 c-24 -15 -4 -22 41 -15 29 5 38 10 28 16 -18 11 -50 11
-69 -1z"/>
<path d="M22631 2786 c2 -2 34 -7 71 -10 36 -3 75 -8 85 -11 10 -3 5 1 -12 9
-26 13 -156 23 -144 12z"/>
<path d="M21990 2768 c0 -4 7 -9 15 -9 24 -2 29 -4 43 -12 7 -5 12 -3 12 6 0
9 -13 16 -35 19 -19 2 -35 0 -35 -4z"/>
<path d="M21918 2733 c17 -2 32 -9 32 -14 0 -6 5 -7 10 -4 20 12 -1 25 -38 23
l-37 -1 33 -4z"/>
<path d="M22388 2713 c7 -3 16 -2 19 1 4 3 -2 6 -13 5 -11 0 -14 -3 -6 -6z"/>
<path d="M21927 2699 c7 -7 15 -10 18 -7 3 3 -2 9 -12 12 -14 6 -15 5 -6 -5z"/>
<path d="M21665 2650 c-3 -5 3 -10 15 -10 12 0 18 5 15 10 -3 6 -10 10 -15 10
-5 0 -12 -4 -15 -10z"/>
<path d="M21718 2653 c7 -3 16 -2 19 1 4 3 -2 6 -13 5 -11 0 -14 -3 -6 -6z"/>
<path d="M20810 3690 c0 -5 5 -10 11 -10 5 0 7 5 4 10 -3 6 -8 10 -11 10 -2 0
-4 -4 -4 -10z"/>
<path d="M20730 3581 c0 -6 5 -13 10 -16 6 -3 10 1 10 9 0 9 -4 16 -10 16 -5
0 -10 -4 -10 -9z"/>
<path d="M20815 3520 c-3 -5 -1 -10 4 -10 6 0 11 5 11 10 0 6 -2 10 -4 10 -3
0 -8 -4 -11 -10z"/>
<path d="M22330 3532 c0 -5 7 -13 16 -16 10 -4 14 -1 12 6 -5 15 -28 23 -28
10z"/>
<path d="M21232 3404 c-7 -8 -8 -14 -3 -14 10 0 25 19 20 25 -2 1 -10 -3 -17
-11z"/>
<path d="M21837 3433 c-4 -6 0 -16 8 -23 21 -17 28 -8 11 15 -8 11 -15 14 -19
8z"/>
<path d="M21896 3411 c-3 -5 1 -11 9 -15 8 -3 15 -1 15 4 0 13 -18 22 -24 11z"/>
<path d="M21815 3390 c-3 -5 -1 -10 4 -10 6 0 11 5 11 10 0 6 -2 10 -4 10 -3
0 -8 -4 -11 -10z"/>
<path d="M21870 3374 c0 -8 5 -12 10 -9 6 4 8 11 5 16 -9 14 -15 11 -15 -7z"/>
<path d="M22250 3360 c-20 -12 -10 -19 14 -10 11 3 15 9 10 13 -6 3 -16 2 -24
-3z"/>
<path d="M22484 3361 c3 -4 -6 -19 -19 -31 -14 -13 -25 -28 -25 -34 0 -8 2 -8
8 0 12 18 45 26 54 12 5 -8 6 -4 4 12 -3 14 -5 31 -5 38 -1 6 -6 12 -12 12 -5
0 -8 -4 -5 -9z"/>
<path d="M22528 3363 c7 -3 16 -2 19 1 4 3 -2 6 -13 5 -11 0 -14 -3 -6 -6z"/>
<path d="M22041 3337 c-6 -8 -8 -17 -4 -21 4 -4 -3 -9 -15 -13 -23 -6 -29 -18
-12 -28 6 -3 10 -1 10 5 0 8 9 10 23 6 18 -4 30 1 46 20 27 31 20 42 -14 24
-14 -7 -28 -10 -32 -7 -3 4 1 7 10 7 10 0 17 5 17 10 0 14 -16 12 -29 -3z"/>
<path d="M22535 3335 c-5 -11 -10 -24 -13 -30 -3 -5 3 -3 13 7 9 9 15 22 12
30 -3 9 -7 7 -12 -7z"/>
<path d="M22183 3313 c-7 -3 -13 -8 -13 -12 0 -9 37 -8 45 1 8 8 -17 16 -32
11z"/>
<path d="M22495 3250 c-3 -5 -1 -10 4 -10 6 0 11 5 11 10 0 6 -2 10 -4 10 -3
0 -8 -4 -11 -10z"/>
<path d="M21360 3210 c-9 -6 -10 -10 -3 -10 6 0 15 5 18 10 8 12 4 12 -15 0z"/>
<path d="M21405 3199 c-4 -6 -5 -12 -2 -15 2 -3 7 2 10 11 7 17 1 20 -8 4z"/>
<path d="M21 6563 c11 -27 444 -1036 962 -2243 l942 -2195 50 0 49 0 973 2235
c535 1229 973 2238 973 2243 0 4 -109 6 -242 5 l-242 -3 -752 -1723 c-413
-947 -753 -1725 -756 -1727 -2 -3 -338 773 -746 1723 l-741 1727 -245 3 -245
2 20 -47z"/>
<path d="M5210 4370 l0 -2240 1270 0 1270 0 0 215 0 215 -1050 0 -1050 0 0
885 0 885 1050 0 1050 0 0 215 0 215 -1050 0 -1050 0 0 710 0 710 1060 0 1060
0 0 215 0 215 -1280 0 -1280 0 0 -2240z"/>
<path d="M14120 6390 l0 -220 500 0 500 0 2 -2022 3 -2023 228 -3 227 -2 0
2025 0 2025 500 0 500 0 0 220 0 220 -1230 0 -1230 0 0 -220z"/>
<path d="M27750 4366 l0 -2246 223 2 222 3 3 1043 2 1042 124 0 125 0 737
-952 c406 -524 771 -995 811 -1045 l73 -93 271 0 c228 0 270 2 266 14 -3 8
-364 477 -803 1042 l-797 1029 144 7 c523 23 844 135 1082 375 95 96 145 168
208 298 154 321 152 760 -6 1075 -71 140 -200 290 -340 395 -78 59 -237 137
-345 169 -224 67 -384 78 -1257 83 l-743 5 0 -2246z m1660 1785 c128 -21 206
-44 290 -83 71 -34 100 -55 175 -132 72 -72 99 -109 133 -176 108 -216 111
-458 8 -675 -73 -155 -189 -270 -341 -340 -163 -75 -305 -95 -720 -102 -177
-3 -418 -2 -538 2 l-217 7 0 760 0 760 573 -5 c339 -3 599 -10 637 -16z"/>
</g>
</svg>
